<svg xmlns="http://www.w3.org/2000/svg" viewBox="0 0 120 60">
  <rect width="120" height="60" rx="8" fill="#84B740"/>
  <path d="M31.3,30.6L28,42.8h-5.7l3.3-12.2H31.3z" fill="#fff"/>
  <path d="M49.3,42.8h-5l0.4-4c-1.3,2.8-3.5,4.4-6.6,4.4c-3.4,0-5.6-2.3-5.6-5.8c0-5.1,3.7-8.1,10-8.1h2c0.2-1.3-0.5-1.9-2.6-1.9
    c-2.1,0-4.4,0.5-5.9,1.3l0.8-4.2c2.4-0.9,4.5-1.3,6.7-1.3c4.8,0,7.3,2,6.5,6.6L49.3,42.8z M44.4,34h-1.1c-2.5,0-3.8,1.1-3.8,3.2
    c0,1.2,0.7,1.9,1.8,1.9c2.1,0,3.5-2.2,3.5-4.4L44.4,34z" fill="#fff"/>
  <path d="M67.3,42.8h-4.8l0.2-2c-1.5,1.6-3.3,2.4-5.6,2.4c-4.4,0-7.3-3.4-7.3-8.5c0-6.6,4.1-11.4,9.6-11.4c1.9,0,3.6,0.7,5,2v-1.6h5
    l-4.2,15.6C64.2,43.1,63.5,46.7,67.3,42.8z M63,30.4c0-2.5-1.2-4-3-4c-2.5,0-4.3,2.8-4.3,6.6c0,2.6,1.1,4.2,3,4.2
    C61.2,37.2,63,34.3,63,30.4z" fill="#fff"/>
  <path d="M83.7,34.6c0,5.1-3.3,8.5-8.3,8.5c-4.9,0-8.1-3.3-8.1-8.2c0-5.1,3.3-8.6,8.3-8.6C80.5,26.4,83.7,29.8,83.7,34.6z M72.3,34.8
    c0,2.7,1.2,4.5,3.3,4.5c2.1,0,3.2-1.7,3.2-4.4c0-2.7-1.2-4.5-3.3-4.5C73.4,30.4,72.3,32,72.3,34.8z" fill="#fff"/>
  <path d="M93.7,26.8l-0.6,2.9c-1.1-0.5-2.3-0.7-3.1-0.7c-1.4,0-2.1,0.4-2.1,1.1c0,2,6.4,0.7,6.4,5.4c0,3.3-2.9,5.3-7.1,5.3
    c-2,0-4-0.4-5.4-1.1l0.7-3c1.4,0.7,3.1,1.1,4.5,1.1c1.5,0,2.4-0.5,2.4-1.4c0-2-6.2-0.7-6.2-5.3c0-3.1,2.6-5.1,6.8-5.1
    C91.3,26,92.6,26.3,93.7,26.8z" fill="#fff"/>
</svg> 