<svg xmlns="http://www.w3.org/2000/svg" viewBox="0 0 120 60">
  <rect width="120" height="60" rx="8" fill="#FFFFFF"/>
  <circle cx="47" cy="30" r="17" fill="#EB001B"/>
  <circle cx="73" cy="30" r="17" fill="#F79E1B"/>
  <path d="M60,17.2c4.2,3.3,6.9,8.5,6.9,14.3c0,5.8-2.7,11-6.9,14.3c-4.2-3.3-6.9-8.5-6.9-14.3C53.1,25.7,55.8,20.5,60,17.2z" fill="#FF5F00"/>
  <path d="M89.9,40.1v-0.6h0.2v-0.1h-0.5v0.1h0.2v0.6H89.9z M91.3,40.1v-0.7h-0.2l-0.2,0.5l-0.2-0.5h-0.2v0.7h0.1v-0.5l0.2,0.5h0.1l0.2-0.5v0.5H91.3z" fill="#F79E1B"/>
</svg> 