<svg xmlns="http://www.w3.org/2000/svg" xmlns:xlink="http://www.w3.org/1999/xlink" width="500" zoomAndPan="magnify" viewBox="0 0 375 374.999991" height="500" preserveAspectRatio="xMidYMid meet" version="1.0"><defs><g/></defs><g fill="#000000" fill-opacity="1"><g transform="translate(43.828958, 206.578969)"><g><path d="M 46.140625 -33.015625 L 45.015625 -31.703125 L 39.015625 -32.828125 C 40.140625 -30.441406 40.984375 -28.28125 41.546875 -26.34375 C 42.109375 -24.40625 42.390625 -22.9375 42.390625 -21.9375 C 42.390625 -18.8125 42.171875 -15.21875 41.734375 -11.15625 C 41.296875 -7.09375 40.765625 -3.09375 40.140625 0.84375 C 39.515625 4.78125 38.859375 8.125 38.171875 10.875 C 37.484375 13.625 36.953125 15.25 36.578125 15.75 C 33.328125 19.625 29.945312 23.03125 26.4375 25.96875 C 22.9375 28.90625 18.1875 32.128906 12.1875 35.640625 C 11.1875 35.640625 9.3125 34.820312 6.5625 33.1875 C 3.8125 31.5625 0.75 29.53125 -2.625 27.09375 C -6 24.65625 -9.15625 22.09375 -12.09375 19.40625 C -15.03125 16.71875 -17.25 14.375 -18.75 12.375 L -17.8125 10.6875 C -13.4375 12.1875 -8.6875 12.9375 -3.5625 12.9375 C 4.0625 12.9375 11.28125 11.09375 18.09375 7.40625 C 24.90625 3.71875 31.128906 -1.4375 36.765625 -8.0625 C 33.765625 -12.8125 30.507812 -17.6875 27 -22.6875 C 23.5 -27.6875 19.5625 -33.066406 15.1875 -38.828125 L 11.8125 -41.828125 C 15.4375 -49.203125 19.8125 -55.578125 24.9375 -60.953125 L 26.8125 -60.953125 C 29.820312 -57.453125 32.921875 -53.453125 36.109375 -48.953125 C 39.296875 -44.453125 42.640625 -39.140625 46.140625 -33.015625 Z M 46.140625 -33.015625 "/></g></g></g><g fill="#000000" fill-opacity="1"><g transform="translate(93.715561, 206.578969)"><g><path d="M 44.078125 -22.875 C 45.203125 -22.875 45.765625 -22.375 45.765625 -21.375 L 45.765625 -1.6875 C 45.765625 -0.5625 45.203125 0 44.078125 0 C 34.441406 0 27.03125 -2.6875 21.84375 -8.0625 C 16.65625 -13.4375 13.3125 -21.816406 11.8125 -33.203125 C 10.8125 -40.953125 9.625 -50.265625 8.25 -61.140625 C 6.875 -72.015625 5.6875 -83.144531 4.6875 -94.53125 C 10.1875 -101.65625 16.3125 -107.78125 23.0625 -112.90625 L 24.9375 -112.90625 L 27.9375 -24.75 C 32.570312 -23.5 37.953125 -22.875 44.078125 -22.875 Z M 44.078125 -22.875 "/></g></g></g><g fill="#000000" fill-opacity="1"><g transform="translate(137.78831, 206.578969)"><g><path d="M 119.28125 -22.875 C 120.40625 -22.875 120.96875 -22.4375 120.96875 -21.5625 L 120.96875 -1.3125 C 120.96875 -0.4375 120.40625 0 119.28125 0 C 113.03125 0 107.96875 -1.90625 104.09375 -5.71875 C 100.21875 -9.53125 97.09375 -14.375 94.71875 -20.25 C 93.832031 -16.625 92.796875 -13 91.609375 -9.375 C 90.421875 -5.75 89.453125 -3.75 88.703125 -3.375 C 86.953125 -2.375 84.703125 -1.5625 81.953125 -0.9375 C 79.203125 -0.3125 76.515625 0 73.890625 0 C 65.640625 0 57.328125 -2.5625 48.953125 -7.6875 C 44.078125 -2.8125 38.132812 -0.375 31.125 -0.375 C 28.5 -0.375 25.625 -1 22.5 -2.25 C 19.375 -3.5 16.375 -5.1875 13.5 -7.3125 C 11.375 -4.8125 9.15625 -2.96875 6.84375 -1.78125 C 4.53125 -0.59375 2.3125 0 0.1875 0 C -1.0625 0 -1.6875 -0.5625 -1.6875 -1.6875 L -1.6875 -21.375 C -1.6875 -22.375 -1.0625 -22.875 0.1875 -22.875 C 8.9375 -22.875 15.125 -23.8125 18.75 -25.6875 L 23.25 -46.328125 L 26.0625 -45.765625 L 21.375 -25.5 C 23.5 -24.75 25.9375 -24.1875 28.6875 -23.8125 C 31.445312 -23.4375 34.203125 -23.25 36.953125 -23.25 C 39.578125 -23.25 42.484375 -23.5 45.671875 -24 C 48.859375 -24.5 51.765625 -25.25 54.390625 -26.25 L 60.390625 -51.953125 L 63.203125 -51.390625 L 57.578125 -26.625 C 60.828125 -25.375 63.921875 -24.4375 66.859375 -23.8125 C 69.796875 -23.1875 72.703125 -22.875 75.578125 -22.875 C 82.203125 -22.875 88.015625 -23.8125 93.015625 -25.6875 C 91.765625 -29.695312 90.671875 -33.921875 89.734375 -38.359375 C 88.796875 -42.796875 88.015625 -47.703125 87.390625 -53.078125 C 89.390625 -55.453125 91.546875 -57.703125 93.859375 -59.828125 C 96.179688 -61.953125 98.34375 -63.765625 100.34375 -65.265625 L 102.21875 -65.265625 C 102.21875 -60.390625 102.40625 -55.421875 102.78125 -50.359375 C 103.15625 -45.296875 103.90625 -40.703125 105.03125 -36.578125 C 106.15625 -32.566406 107.84375 -29.28125 110.09375 -26.71875 C 112.34375 -24.15625 115.40625 -22.875 119.28125 -22.875 Z M 119.28125 -22.875 "/></g></g></g><g fill="#000000" fill-opacity="1"><g transform="translate(257.066076, 206.578969)"><g><path d="M 45.953125 -63.578125 C 49.203125 -63.578125 52.484375 -62.234375 55.796875 -59.546875 C 59.109375 -56.859375 61.890625 -52.890625 64.140625 -47.640625 C 66.390625 -42.390625 67.515625 -36.007812 67.515625 -28.5 C 67.515625 -26.5 66.703125 -23.8125 65.078125 -20.4375 C 63.453125 -17.0625 61.484375 -13.625 59.171875 -10.125 C 56.859375 -6.625 54.703125 -3.6875 52.703125 -1.3125 C 50.703125 1.0625 49.328125 2.25 48.578125 2.25 C 40.953125 2.25 34.195312 0.71875 28.3125 -2.34375 C 22.4375 -5.40625 18.25 -9.9375 15.75 -15.9375 L 14.625 -13.125 C 11.125 -4.375 6.25 0 0 0 C -1.125 0 -1.6875 -0.5625 -1.6875 -1.6875 L -1.6875 -21.375 C -1.6875 -22.375 -1.125 -22.875 0 -22.875 C 6.25 -22.875 11.8125 -24.5 16.6875 -27.75 L 18.75 -32.828125 C 23.125 -43.203125 27.3125 -50.921875 31.3125 -55.984375 C 35.320312 -61.046875 40.203125 -63.578125 45.953125 -63.578125 Z M 23.8125 -34.515625 C 26.1875 -30.503906 29.34375 -27.5 33.28125 -25.5 C 37.226562 -23.5 41.390625 -22.1875 45.765625 -21.5625 C 50.140625 -20.9375 54.078125 -20.5625 57.578125 -20.4375 C 55.328125 -27.0625 52.484375 -32.1875 49.046875 -35.8125 C 45.609375 -39.445312 41.953125 -41.265625 38.078125 -41.265625 C 35.203125 -41.265625 32.539062 -40.671875 30.09375 -39.484375 C 27.65625 -38.296875 25.5625 -36.640625 23.8125 -34.515625 Z M 23.8125 -34.515625 "/></g></g></g><path stroke-linecap="butt" transform="matrix(0.0179751, -0.749785, 0.749785, 0.0179751, 107.963421, 78.829161)" fill="none" stroke-linejoin="miter" d="M -0.00064073 1.0022 L 27.335239 0.998088 " stroke="#000000" stroke-width="2" stroke-opacity="1" stroke-miterlimit="4"/><path stroke-linecap="butt" transform="matrix(0.75, 0, 0, 0.75, 108.716453, 290.661982)" fill="none" stroke-linejoin="miter" d="M -0.00214508 0.997566 L 247.883288 0.997566 " stroke="#000000" stroke-width="2" stroke-opacity="1" stroke-miterlimit="4"/><g fill="#000000" fill-opacity="1"><g transform="translate(128.91761, 315.600572)"><g><path d="M 1.28125 0 L 1.28125 -9.6875 L 3 -9.6875 L 5.921875 -1.6875 L 8.875 -9.6875 L 10.59375 -9.6875 L 10.59375 0 L 9.3125 0 L 9.3125 -7.84375 L 6.5 0 L 5.34375 0 L 2.546875 -7.765625 L 2.546875 0 Z M 1.28125 0 "/></g></g></g><g fill="#000000" fill-opacity="1"><g transform="translate(144.178729, 315.600572)"><g><path d="M 0.5625 0 L 4.0625 -9.6875 L 5.46875 -9.6875 L 8.96875 0 L 7.703125 0 L 6.75 -2.65625 L 2.78125 -2.65625 L 1.8125 0 Z M 3.109375 -3.796875 L 6.421875 -3.796875 L 4.765625 -8.46875 Z M 3.109375 -3.796875 "/></g></g></g><g fill="#000000" fill-opacity="1"><g transform="translate(157.087924, 315.600572)"><g><path d="M 4.578125 0.140625 C 4.117188 0.140625 3.671875 0.0820312 3.234375 -0.03125 C 2.804688 -0.144531 2.421875 -0.316406 2.078125 -0.546875 C 1.734375 -0.773438 1.441406 -1.054688 1.203125 -1.390625 C 0.972656 -1.734375 0.832031 -2.128906 0.78125 -2.578125 L 2.078125 -2.578125 C 2.160156 -2.210938 2.320312 -1.90625 2.5625 -1.65625 C 2.800781 -1.40625 3.09375 -1.210938 3.4375 -1.078125 C 3.78125 -0.953125 4.15625 -0.890625 4.5625 -0.890625 C 5.019531 -0.890625 5.425781 -0.953125 5.78125 -1.078125 C 6.144531 -1.210938 6.429688 -1.394531 6.640625 -1.625 C 6.847656 -1.863281 6.953125 -2.148438 6.953125 -2.484375 C 6.953125 -2.773438 6.882812 -3.023438 6.75 -3.234375 C 6.625 -3.453125 6.4375 -3.632812 6.1875 -3.78125 C 5.9375 -3.925781 5.628906 -4.035156 5.265625 -4.109375 L 3.359375 -4.5625 C 2.648438 -4.71875 2.09375 -4.992188 1.6875 -5.390625 C 1.28125 -5.796875 1.070312 -6.328125 1.0625 -6.984375 C 1.0625 -7.546875 1.207031 -8.039062 1.5 -8.46875 C 1.800781 -8.894531 2.210938 -9.222656 2.734375 -9.453125 C 3.253906 -9.691406 3.851562 -9.8125 4.53125 -9.8125 C 5.300781 -9.8125 5.945312 -9.675781 6.46875 -9.40625 C 7 -9.144531 7.398438 -8.800781 7.671875 -8.375 C 7.941406 -7.945312 8.078125 -7.488281 8.078125 -7 L 6.796875 -7 C 6.753906 -7.4375 6.625 -7.785156 6.40625 -8.046875 C 6.195312 -8.304688 5.925781 -8.488281 5.59375 -8.59375 C 5.269531 -8.707031 4.914062 -8.765625 4.53125 -8.765625 C 4.25 -8.765625 3.976562 -8.726562 3.71875 -8.65625 C 3.46875 -8.582031 3.238281 -8.476562 3.03125 -8.34375 C 2.832031 -8.207031 2.671875 -8.035156 2.546875 -7.828125 C 2.429688 -7.617188 2.375 -7.378906 2.375 -7.109375 C 2.375 -6.765625 2.492188 -6.484375 2.734375 -6.265625 C 2.972656 -6.046875 3.40625 -5.859375 4.03125 -5.703125 L 5.875 -5.25 C 6.363281 -5.144531 6.757812 -4.992188 7.0625 -4.796875 C 7.363281 -4.597656 7.597656 -4.367188 7.765625 -4.109375 C 7.941406 -3.859375 8.0625 -3.59375 8.125 -3.3125 C 8.1875 -3.039062 8.21875 -2.769531 8.21875 -2.5 C 8.21875 -2.007812 8.070312 -1.5625 7.78125 -1.15625 C 7.488281 -0.757812 7.070312 -0.441406 6.53125 -0.203125 C 5.988281 0.0234375 5.335938 0.140625 4.578125 0.140625 Z M 4.578125 0.140625 "/></g></g></g><g fill="#000000" fill-opacity="1"><g transform="translate(169.507974, 315.600572)"><g><path d="M 0.5625 0 L 4.0625 -9.6875 L 5.46875 -9.6875 L 8.96875 0 L 7.703125 0 L 6.75 -2.65625 L 2.78125 -2.65625 L 1.8125 0 Z M 3.109375 -3.796875 L 6.421875 -3.796875 L 4.765625 -8.46875 Z M 3.109375 -3.796875 "/></g></g></g><g fill="#000000" fill-opacity="1"><g transform="translate(182.41717, 315.600572)"><g><path d="M 8.21875 0 L 6.890625 0 L 5.125 -4.171875 L 2.515625 -4.171875 L 2.515625 0 L 1.28125 0 L 1.28125 -9.6875 L 5.03125 -9.6875 C 5.726562 -9.6875 6.3125 -9.582031 6.78125 -9.375 C 7.25 -9.164062 7.597656 -8.863281 7.828125 -8.46875 C 8.066406 -8.070312 8.1875 -7.597656 8.1875 -7.046875 C 8.1875 -6.515625 8.09375 -6.070312 7.90625 -5.71875 C 7.71875 -5.375 7.476562 -5.097656 7.1875 -4.890625 C 6.90625 -4.679688 6.613281 -4.515625 6.3125 -4.390625 Z M 4.625 -5.203125 C 5.351562 -5.203125 5.914062 -5.347656 6.3125 -5.640625 C 6.71875 -5.941406 6.921875 -6.382812 6.921875 -6.96875 C 6.921875 -7.539062 6.742188 -7.96875 6.390625 -8.25 C 6.035156 -8.539062 5.546875 -8.6875 4.921875 -8.6875 L 2.515625 -8.6875 L 2.515625 -5.203125 Z M 4.625 -5.203125 "/></g></g></g><g fill="#000000" fill-opacity="1"><g transform="translate(194.877423, 315.600572)"><g/></g></g><g fill="#000000" fill-opacity="1"><g transform="translate(201.360718, 315.600572)"><g><path d="M 0.5625 0 L 4.0625 -9.6875 L 5.46875 -9.6875 L 8.96875 0 L 7.703125 0 L 6.75 -2.65625 L 2.78125 -2.65625 L 1.8125 0 Z M 3.109375 -3.796875 L 6.421875 -3.796875 L 4.765625 -8.46875 Z M 3.109375 -3.796875 "/></g></g></g><g fill="#000000" fill-opacity="1"><g transform="translate(214.269913, 315.600572)"><g><path d="M 1.28125 -9.6875 L 2.546875 -9.6875 L 2.546875 -1.109375 L 7.125 -1.109375 L 7.125 0 L 1.28125 0 Z M 1.28125 -9.6875 "/></g></g></g><g fill="#000000" fill-opacity="1"><g transform="translate(225.403442, 315.600572)"><g><path d="M 0.5625 0 L 4.0625 -9.6875 L 5.46875 -9.6875 L 8.96875 0 L 7.703125 0 L 6.75 -2.65625 L 2.78125 -2.65625 L 1.8125 0 Z M 3.109375 -3.796875 L 6.421875 -3.796875 L 4.765625 -8.46875 Z M 3.109375 -3.796875 "/></g></g></g><g fill="#000000" fill-opacity="1"><g transform="translate(238.312638, 315.600572)"><g><path d="M 0.71875 -4.828125 C 0.71875 -5.890625 0.890625 -6.789062 1.234375 -7.53125 C 1.578125 -8.28125 2.0625 -8.847656 2.6875 -9.234375 C 3.320312 -9.628906 4.066406 -9.828125 4.921875 -9.828125 C 5.785156 -9.828125 6.53125 -9.628906 7.15625 -9.234375 C 7.789062 -8.847656 8.273438 -8.28125 8.609375 -7.53125 C 8.941406 -6.789062 9.109375 -5.890625 9.109375 -4.828125 C 9.109375 -3.828125 8.957031 -2.96875 8.65625 -2.25 C 8.363281 -1.53125 7.882812 -0.957031 7.21875 -0.53125 C 7.382812 -0.164062 7.628906 0.101562 7.953125 0.28125 C 8.285156 0.457031 8.648438 0.550781 9.046875 0.5625 L 9.046875 1.625 C 8.722656 1.625 8.382812 1.582031 8.03125 1.5 C 7.675781 1.425781 7.332031 1.273438 7 1.046875 C 6.664062 0.816406 6.359375 0.472656 6.078125 0.015625 C 5.847656 0.0546875 5.644531 0.0859375 5.46875 0.109375 C 5.289062 0.128906 5.109375 0.140625 4.921875 0.140625 C 4.066406 0.140625 3.320312 -0.0507812 2.6875 -0.4375 C 2.0625 -0.820312 1.578125 -1.378906 1.234375 -2.109375 C 0.890625 -2.847656 0.71875 -3.753906 0.71875 -4.828125 Z M 2.09375 -4.796875 C 2.09375 -3.460938 2.335938 -2.484375 2.828125 -1.859375 C 3.328125 -1.242188 4.023438 -0.9375 4.921875 -0.9375 C 5.828125 -0.9375 6.523438 -1.25 7.015625 -1.875 C 7.515625 -2.5 7.765625 -3.476562 7.765625 -4.8125 C 7.765625 -6.144531 7.519531 -7.132812 7.03125 -7.78125 C 6.539062 -8.425781 5.835938 -8.75 4.921875 -8.75 C 4.015625 -8.75 3.316406 -8.421875 2.828125 -7.765625 C 2.335938 -7.117188 2.09375 -6.128906 2.09375 -4.796875 Z M 2.09375 -4.796875 "/></g></g></g><g fill="#000000" fill-opacity="1"><g transform="translate(251.724375, 315.600572)"><g><path d="M 0.5625 0 L 4.0625 -9.6875 L 5.46875 -9.6875 L 8.96875 0 L 7.703125 0 L 6.75 -2.65625 L 2.78125 -2.65625 L 1.8125 0 Z M 3.109375 -3.796875 L 6.421875 -3.796875 L 4.765625 -8.46875 Z M 3.109375 -3.796875 "/></g></g></g><g fill="#000000" fill-opacity="1"><g transform="translate(264.63357, 315.600572)"><g><path d="M 8.21875 0 L 6.890625 0 L 5.125 -4.171875 L 2.515625 -4.171875 L 2.515625 0 L 1.28125 0 L 1.28125 -9.6875 L 5.03125 -9.6875 C 5.726562 -9.6875 6.3125 -9.582031 6.78125 -9.375 C 7.25 -9.164062 7.597656 -8.863281 7.828125 -8.46875 C 8.066406 -8.070312 8.1875 -7.597656 8.1875 -7.046875 C 8.1875 -6.515625 8.09375 -6.070312 7.90625 -5.71875 C 7.71875 -5.375 7.476562 -5.097656 7.1875 -4.890625 C 6.90625 -4.679688 6.613281 -4.515625 6.3125 -4.390625 Z M 4.625 -5.203125 C 5.351562 -5.203125 5.914062 -5.347656 6.3125 -5.640625 C 6.71875 -5.941406 6.921875 -6.382812 6.921875 -6.96875 C 6.921875 -7.539062 6.742188 -7.96875 6.390625 -8.25 C 6.035156 -8.539062 5.546875 -8.6875 4.921875 -8.6875 L 2.515625 -8.6875 L 2.515625 -5.203125 Z M 4.625 -5.203125 "/></g></g></g><g fill="#000000" fill-opacity="1"><g transform="translate(149.478416, 259.847275)"><g/></g></g><g fill="#000000" fill-opacity="1"><g transform="translate(157.32955, 259.847275)"><g><path d="M 12.0625 -8.625 L 11.765625 -8.28125 L 10.1875 -8.578125 C 10.488281 -7.953125 10.710938 -7.382812 10.859375 -6.875 C 11.003906 -6.375 11.078125 -5.992188 11.078125 -5.734375 C 11.078125 -4.921875 11.019531 -3.984375 10.90625 -2.921875 C 10.789062 -1.859375 10.648438 -0.8125 10.484375 0.21875 C 10.328125 1.25 10.15625 2.125 9.96875 2.84375 C 9.789062 3.5625 9.65625 3.988281 9.5625 4.125 C 8.707031 5.132812 7.820312 6.019531 6.90625 6.78125 C 5.988281 7.550781 4.75 8.394531 3.1875 9.3125 C 2.925781 9.3125 2.4375 9.097656 1.71875 8.671875 C 1 8.242188 0.195312 7.710938 -0.6875 7.078125 C -1.570312 6.441406 -2.394531 5.769531 -3.15625 5.0625 C -3.925781 4.363281 -4.507812 3.753906 -4.90625 3.234375 L -4.65625 2.796875 C -3.507812 3.179688 -2.269531 3.375 -0.9375 3.375 C 1.0625 3.375 2.953125 2.890625 4.734375 1.921875 C 6.515625 0.960938 8.140625 -0.378906 9.609375 -2.109375 C 8.828125 -3.347656 7.976562 -4.617188 7.0625 -5.921875 C 6.144531 -7.234375 5.113281 -8.640625 3.96875 -10.140625 L 3.09375 -10.9375 C 4.039062 -12.863281 5.179688 -14.53125 6.515625 -15.9375 L 7.015625 -15.9375 C 7.796875 -15.019531 8.601562 -13.972656 9.4375 -12.796875 C 10.269531 -11.617188 11.144531 -10.226562 12.0625 -8.625 Z M 12.0625 -8.625 "/></g></g></g><g fill="#000000" fill-opacity="1"><g transform="translate(170.369348, 259.847275)"><g><path d="M 11.515625 -5.984375 C 11.804688 -5.984375 11.953125 -5.851562 11.953125 -5.59375 L 11.953125 -0.4375 C 11.953125 -0.144531 11.804688 0 11.515625 0 C 9.003906 0 7.066406 -0.703125 5.703125 -2.109375 C 4.347656 -3.515625 3.476562 -5.703125 3.09375 -8.671875 C 2.832031 -10.703125 2.519531 -13.140625 2.15625 -15.984375 C 1.800781 -18.828125 1.488281 -21.734375 1.21875 -24.703125 C 2.65625 -26.566406 4.257812 -28.164062 6.03125 -29.5 L 6.515625 -29.5 L 7.296875 -6.46875 C 8.503906 -6.144531 9.910156 -5.984375 11.515625 -5.984375 Z M 11.515625 -5.984375 "/></g></g></g><g fill="#000000" fill-opacity="1"><g transform="translate(181.889482, 259.847275)"><g><path d="M 12.40625 -21.765625 L 8.96875 -25.1875 L 5.53125 -21.765625 L 1.765625 -25.53125 L 5.53125 -29.359375 L 8.96875 -25.875 L 12.40625 -29.359375 L 16.125 -25.53125 Z M 17.59375 -5.984375 C 17.882812 -5.984375 18.03125 -5.851562 18.03125 -5.59375 L 18.03125 -0.4375 C 18.03125 -0.144531 17.882812 0 17.59375 0 C 14.132812 0 11 -0.648438 8.1875 -1.953125 C 5.738281 -0.648438 3.007812 0 0 0 C -0.289062 0 -0.4375 -0.144531 -0.4375 -0.4375 L -0.4375 -5.59375 C -0.4375 -5.851562 -0.289062 -5.984375 0 -5.984375 L 3.4375 -5.984375 C 2.71875 -7.253906 2.359375 -8.625 2.359375 -10.09375 C 2.359375 -11.039062 2.535156 -12.03125 2.890625 -13.0625 C 3.253906 -14.09375 3.742188 -15.039062 4.359375 -15.90625 C 4.984375 -16.769531 5.6875 -17.472656 6.46875 -18.015625 C 7.25 -18.554688 8.066406 -18.828125 8.921875 -18.828125 C 10.222656 -18.828125 11.332031 -18.429688 12.25 -17.640625 C 13.164062 -16.859375 13.867188 -15.835938 14.359375 -14.578125 C 14.847656 -13.316406 15.09375 -11.9375 15.09375 -10.4375 C 15.09375 -9.625 14.96875 -8.847656 14.71875 -8.109375 C 14.476562 -7.378906 14.128906 -6.6875 13.671875 -6.03125 C 14.160156 -6 14.734375 -5.984375 15.390625 -5.984375 C 16.046875 -5.984375 16.78125 -5.984375 17.59375 -5.984375 Z M 7.9375 -13.328125 C 6.53125 -13.328125 5.078125 -12.332031 3.578125 -10.34375 C 4.460938 -9.425781 5.335938 -8.65625 6.203125 -8.03125 C 7.066406 -7.414062 8.035156 -6.925781 9.109375 -6.5625 C 9.765625 -6.820312 10.421875 -7.125 11.078125 -7.46875 C 11.734375 -7.8125 12.351562 -8.148438 12.9375 -8.484375 C 12.21875 -10.015625 11.425781 -11.203125 10.5625 -12.046875 C 9.695312 -12.898438 8.820312 -13.328125 7.9375 -13.328125 Z M 7.9375 -13.328125 "/></g></g></g><g fill="#000000" fill-opacity="1"><g transform="translate(199.488319, 259.847275)"><g><path d="M 21.375 -5.984375 C 21.664062 -5.984375 21.8125 -5.851562 21.8125 -5.59375 L 21.8125 -0.4375 C 21.8125 -0.144531 21.664062 0 21.375 0 C 17.414062 0 14.128906 -0.847656 11.515625 -2.546875 C 10.140625 -1.734375 8.445312 -1.101562 6.4375 -0.65625 C 4.4375 -0.21875 2.289062 0 0 0 C -0.289062 0 -0.4375 -0.144531 -0.4375 -0.4375 L -0.4375 -5.59375 C -0.4375 -5.851562 -0.289062 -5.984375 0 -5.984375 C 1.53125 -5.984375 2.925781 -6 4.1875 -6.03125 C 5.445312 -6.0625 6.582031 -6.109375 7.59375 -6.171875 C 6.976562 -7.023438 6.390625 -7.90625 5.828125 -8.8125 C 5.273438 -9.726562 4.785156 -10.628906 4.359375 -11.515625 C 4.035156 -11.390625 3.707031 -11.269531 3.375 -11.15625 C 3.050781 -11.039062 2.742188 -10.898438 2.453125 -10.734375 L 2.0625 -10.984375 C 2.1875 -11.441406 2.363281 -12.019531 2.59375 -12.71875 C 2.820312 -13.414062 3.078125 -14.125 3.359375 -14.84375 C 3.640625 -15.570312 3.910156 -16.1875 4.171875 -16.6875 C 4.429688 -17.195312 4.660156 -17.5 4.859375 -17.59375 C 5.703125 -17.988281 6.710938 -18.300781 7.890625 -18.53125 C 9.066406 -18.757812 10.359375 -18.875 11.765625 -18.875 C 13.785156 -18.875 15.414062 -18.34375 16.65625 -17.28125 C 17.90625 -16.21875 18.53125 -14.835938 18.53125 -13.140625 C 18.53125 -11.992188 18.265625 -10.804688 17.734375 -9.578125 C 17.210938 -8.359375 16.515625 -7.207031 15.640625 -6.125 C 17.078125 -6.03125 18.988281 -5.984375 21.375 -5.984375 Z M 11.46875 -12.796875 C 10.84375 -12.796875 10.171875 -12.753906 9.453125 -12.671875 C 8.734375 -12.585938 8.015625 -12.460938 7.296875 -12.296875 C 8.734375 -9.878906 10.140625 -8.132812 11.515625 -7.0625 C 13.441406 -8.300781 15.109375 -10 16.515625 -12.15625 C 15.859375 -12.351562 15.070312 -12.507812 14.15625 -12.625 C 13.25 -12.738281 12.351562 -12.796875 11.46875 -12.796875 Z M 11.46875 -12.796875 "/></g></g></g><g fill="#000000" fill-opacity="1"><g transform="translate(220.861829, 259.847275)"><g><path d="M 10.484375 -20.484375 L 10.140625 -20.1875 L 8.921875 -20.875 C 9.117188 -18.300781 9.28125 -16.066406 9.40625 -14.171875 C 9.539062 -12.273438 9.609375 -10.96875 9.609375 -10.25 C 9.609375 -9.851562 9.441406 -9.285156 9.109375 -8.546875 C 8.785156 -7.816406 8.367188 -7.019531 7.859375 -6.15625 C 7.359375 -5.289062 6.835938 -4.445312 6.296875 -3.625 C 5.753906 -2.8125 5.265625 -2.125 4.828125 -1.5625 C 4.390625 -1.007812 4.085938 -0.703125 3.921875 -0.640625 C 3.429688 -0.441406 2.828125 -0.285156 2.109375 -0.171875 C 1.390625 -0.0546875 0.6875 0 0 0 C -0.289062 0 -0.4375 -0.144531 -0.4375 -0.4375 L -0.4375 -5.59375 C -0.4375 -5.851562 -0.289062 -5.984375 0 -5.984375 C 1.113281 -5.984375 2.222656 -6.046875 3.328125 -6.171875 C 4.441406 -6.304688 5.40625 -6.488281 6.21875 -6.71875 C 5.832031 -9.757812 5.425781 -12.789062 5 -15.8125 C 4.570312 -18.832031 4.128906 -21.726562 3.671875 -24.5 L 2.9375 -25.390625 C 3.882812 -27.347656 5.03125 -29.015625 6.375 -30.390625 L 6.859375 -30.390625 C 8.035156 -27.972656 9.242188 -24.671875 10.484375 -20.484375 Z M 10.484375 -20.484375 "/></g></g></g><g fill="#000000" fill-opacity="1"><g transform="translate(233.068263, 259.847275)"><g><path d="M 9.015625 -20.484375 L 8.671875 -20.1875 L 7.5 -20.875 C 7.726562 -18.300781 7.90625 -15.910156 8.03125 -13.703125 C 8.164062 -11.492188 8.234375 -9.71875 8.234375 -8.375 C 8.234375 -6.976562 7.789062 -5.460938 6.90625 -3.828125 C 6.03125 -2.191406 4.9375 -0.71875 3.625 0.59375 L 3.140625 0.59375 C 3.203125 -0.351562 3.253906 -1.273438 3.296875 -2.171875 C 3.347656 -3.078125 3.375 -4.019531 3.375 -5 C 3.375 -8.269531 3.273438 -11.445312 3.078125 -14.53125 C 2.890625 -17.625 2.566406 -21 2.109375 -24.65625 L 1.46875 -25.390625 C 2.414062 -27.347656 3.5625 -29.015625 4.90625 -30.390625 L 5.390625 -30.390625 C 6.566406 -27.972656 7.773438 -24.671875 9.015625 -20.484375 Z M 9.015625 -20.484375 "/></g></g></g><path stroke-linecap="butt" transform="matrix(-0.749988, -0.00428526, 0.00428526, -0.749988, 294.615367, 59.634709)" fill="none" stroke-linejoin="miter" d="M -0.00190775 1.002556 L 247.887543 0.997655 " stroke="#000000" stroke-width="2" stroke-opacity="1" stroke-miterlimit="4"/><path stroke-linecap="butt" transform="matrix(0.0108714, -0.749921, 0.749921, 0.0108714, 293.882124, 131.61591)" fill="none" stroke-linejoin="miter" d="M 0.00238945 1.000989 L 97.710583 1.001358 " stroke="#000000" stroke-width="2" stroke-opacity="1" stroke-miterlimit="4"/><path stroke-linecap="butt" transform="matrix(0, -0.75, 0.75, 0, 293.881773, 291.408233)" fill="none" stroke-linejoin="miter" d="M -0.00256451 1.001386 L 94.101608 1.001386 " stroke="#000000" stroke-width="2" stroke-opacity="1" stroke-miterlimit="4"/><path stroke-linecap="butt" transform="matrix(0.0141687, -0.749866, 0.749866, 0.0141687, 107.120277, 291.393643)" fill="none" stroke-linejoin="miter" d="M 0.00210619 1.001227 L 94.123037 0.999173 " stroke="#000000" stroke-width="2" stroke-opacity="1" stroke-miterlimit="4"/></svg>