<svg xmlns="http://www.w3.org/2000/svg" xmlns:xlink="http://www.w3.org/1999/xlink" width="600" zoomAndPan="magnify" viewBox="0 0 375 374.999991" height="600" preserveAspectRatio="xMidYMid meet" version="1.0"><defs><g/><clipPath id="0418017b19"><path d="M 138.457031 108.511719 L 236.539062 108.511719 L 236.539062 244.800781 L 138.457031 244.800781 Z M 138.457031 108.511719 " clip-rule="nonzero"/></clipPath></defs><g clip-path="url(#0418017b19)"><path stroke-linecap="butt" transform="matrix(0.75, 0, 0, 0.75, 138.457306, 108.51342)" fill="none" stroke-linejoin="miter" d="M -0.000366077 -0.00226843 L 130.775684 -0.00226843 L 130.775684 181.716494 L -0.000366077 181.716494 Z M -0.000366077 -0.00226843 " stroke="#000000" stroke-width="4" stroke-opacity="1" stroke-miterlimit="4"/></g><path stroke-linecap="butt" transform="matrix(0.965695, 0, 0, 0.965695, 74.837066, 100.678829)" fill="none" stroke-linejoin="miter" d="M 57.680749 80.270171 L 57.025456 81.030634 L 54.01192 79.84949 C 54.885643 82.070203 55.532846 84.116981 55.949482 85.985778 C 56.390389 87.838395 56.60882 89.266285 56.60882 90.261359 C 56.60882 91.345423 56.511739 92.676233 56.317579 94.249744 C 56.143643 95.823255 55.933302 97.412946 55.690601 99.022862 C 55.443855 100.632778 55.189019 102.040443 54.930139 103.245858 C 54.683393 104.471497 54.493277 105.23196 54.351701 105.527246 C 52.709425 108.884609 50.286461 111.70803 47.086854 114.001553 C 43.903427 116.291032 40.62292 117.759373 37.249377 118.406575 C 36.897461 118.406575 36.165313 118.135559 35.044844 117.593527 C 33.944599 117.067675 32.674465 116.412382 31.242529 115.627649 C 29.806549 114.838872 28.419109 113.973238 27.072118 113.03075 C 25.708948 112.104441 24.588479 111.283303 23.714756 110.56329 L 24.159708 109.592487 C 25.365122 109.960583 26.619077 110.268004 27.909437 110.510705 C 29.203842 110.773631 30.534652 110.907117 31.897822 110.907117 C 37.055216 110.907117 41.638218 109.418551 45.642783 106.445465 C 49.647349 103.472379 52.620435 99.617479 54.562042 94.876721 C 53.126062 91.729699 51.625361 88.566497 50.047805 85.38307 C 48.474294 82.183463 46.755163 78.72093 44.882321 74.995471 L 43.175324 73.498816 C 43.822527 71.998115 44.522314 70.60663 45.274687 69.328405 C 46.02706 68.038045 46.868423 66.881171 47.794732 65.865872 L 48.975876 65.865872 C 50.266236 67.807479 51.633451 69.943247 53.065386 72.269131 C 54.501367 74.595015 56.038473 77.26068 57.680749 80.270171 Z M 85.389103 90.366529 C 86.036306 90.366529 86.359907 90.653725 86.359907 91.232163 L 86.359907 97.028669 C 86.359907 97.675872 86.036306 97.999473 85.389103 97.999473 C 81.594879 97.999473 78.532802 97.538341 76.206919 96.607988 C 73.881035 95.681679 72.141678 94.108168 70.988849 91.887455 C 69.8522 89.666742 69.063422 86.64916 68.62656 82.838756 C 68.137113 77.766307 67.586991 71.9698 66.976194 65.449235 C 66.361352 58.924626 65.734374 51.048981 65.087172 41.814211 C 66.082246 40.519806 67.097544 39.269897 68.129023 38.064482 C 69.176682 36.838842 70.280971 35.799274 71.433801 34.94173 L 72.614945 34.94173 L 74.423067 88.869874 C 75.790282 89.290555 77.379973 89.650562 79.20023 89.945848 C 81.036667 90.228999 83.099625 90.366529 85.389103 90.366529 Z M 153.620421 90.366529 C 154.267623 90.366529 154.591224 90.621365 154.591224 91.126992 L 154.486054 97.13384 C 154.486054 97.712277 154.162453 97.999473 153.51525 97.999473 C 150.784865 97.999473 148.450891 97.283505 146.509284 95.847525 C 144.587901 94.41559 143.046751 92.550837 141.893921 90.261359 C 141.614815 91.486998 141.238629 92.744998 140.765362 94.039403 C 140.31232 95.317628 139.899729 96.025506 139.535677 96.163036 C 138.030932 96.741473 136.34416 97.194515 134.471318 97.526206 C 132.618701 97.841717 130.94002 97.999473 129.435274 97.999473 C 125.430709 97.999473 120.884112 96.713158 115.795483 94.144573 C 113.506004 96.644393 110.209317 97.894303 105.905421 97.894303 C 104.33191 97.894303 102.503563 97.590926 100.424425 96.976084 C 98.361467 96.365287 96.42795 95.491564 94.627918 94.354914 C 93.422504 95.718084 91.986523 96.672708 90.324022 97.21474 C 88.681746 97.736547 87.07183 97.999473 85.498319 97.999473 C 84.782351 97.999473 84.422345 97.675872 84.422345 97.028669 L 84.422345 91.232163 C 84.422345 90.653725 84.782351 90.366529 85.498319 90.366529 C 87.581502 90.366529 89.547379 90.192594 91.399996 89.840677 C 93.272838 89.476626 94.890844 88.934594 96.254014 88.214581 L 99.583062 74.052983 L 100.869377 74.364449 L 97.6455 88.319752 C 98.782149 88.829423 100.319255 89.266285 102.260862 89.634381 C 104.202469 89.982253 105.958006 90.156188 107.531517 90.156188 C 109.177838 90.156188 110.836294 90.018658 112.514976 89.735507 C 114.193657 89.440221 115.750988 89.003359 117.186968 88.424922 L 121.486819 70.61472 L 122.773134 70.930231 L 118.707894 88.00424 C 120.787032 88.793018 122.756954 89.387636 124.609571 89.788092 C 126.478368 90.176414 128.448291 90.366529 130.511248 90.366529 C 132.084759 90.366529 133.824116 90.208774 135.729318 89.893262 C 137.63452 89.561571 139.446687 89.11662 141.161774 88.558407 C 140.23142 86.038363 139.483092 83.223032 138.904655 80.112416 C 138.326218 76.997754 137.820591 73.753652 137.383729 70.380109 C 138.188687 69.38099 138.904655 68.543672 139.535677 67.860064 C 140.18288 67.180502 140.931208 66.480714 141.788751 65.764747 L 142.969895 65.764747 C 143.127651 69.417395 143.398667 72.827343 143.782943 75.99459 C 144.1834 79.141612 144.745657 81.823457 145.461625 84.04417 C 146.019837 85.900832 146.929965 87.421758 148.187965 88.610993 C 149.45001 89.780002 151.258132 90.366529 153.620421 90.366529 Z M 180.790788 65.449235 C 182.873971 65.449235 184.856028 66.254193 186.74505 67.860064 C 188.650253 69.46998 190.235899 71.892945 191.493898 75.128957 C 192.751898 78.344744 193.38292 82.385714 193.38292 87.243777 C 193.38292 87.89098 193.095724 88.861784 192.517287 90.156188 C 191.93885 91.450593 191.259287 92.797583 190.470509 94.197159 C 189.685777 95.576509 188.933404 96.757653 188.213391 97.736547 C 187.497423 98.699261 186.955391 99.180617 186.587295 99.180617 C 181.44608 99.180617 176.883303 98.270489 172.894918 96.454277 C 168.926758 94.61784 166.006257 92.053301 164.13746 88.768748 L 163.401267 90.57687 C 161.111789 95.523924 157.847461 97.999473 153.616376 97.999473 C 152.969173 97.999473 152.645572 97.675872 152.645572 97.028669 L 152.645572 91.232163 C 152.645572 90.653725 152.969173 90.366529 153.616376 90.366529 C 156.904973 90.366529 159.910419 89.440221 162.640805 87.587604 L 165.553216 81.135804 C 168.263376 75.189632 170.763195 71.087987 173.052674 68.830868 C 175.346197 66.577795 177.922872 65.449235 180.790788 65.449235 Z M 166.940656 82.418074 C 169.234179 85.864427 172.312436 88.234806 176.175426 89.529211 C 180.038415 90.803391 184.516247 91.478908 189.604876 91.547674 C 188.468227 85.18082 186.963481 80.496692 185.094684 77.487201 C 183.238022 74.481754 181.053714 72.977009 178.537714 72.977009 C 176.543522 72.977009 174.488654 73.781967 172.373111 75.387838 C 170.257568 76.997754 168.445401 79.339818 166.940656 82.418074 Z M 166.940656 82.418074 " stroke="#ffffff" stroke-width="20.415119" stroke-opacity="1" stroke-miterlimit="4"/><g fill="#000000" fill-opacity="1"><g transform="translate(108.123357, 195.316915)"><g><path d="M 22.40625 -17.125 L 21.78125 -16.390625 L 18.875 -17.53125 C 19.707031 -15.382812 20.332031 -13.410156 20.75 -11.609375 C 21.164062 -9.816406 21.375 -8.4375 21.375 -7.46875 C 21.375 -6.425781 21.285156 -5.144531 21.109375 -3.625 C 20.941406 -2.101562 20.734375 -0.566406 20.484375 0.984375 C 20.242188 2.535156 20.003906 3.898438 19.765625 5.078125 C 19.523438 6.253906 19.332031 6.984375 19.1875 7.265625 C 17.601562 10.515625 15.269531 13.242188 12.1875 15.453125 C 9.113281 17.671875 5.953125 19.09375 2.703125 19.71875 C 2.347656 19.71875 1.632812 19.457031 0.5625 18.9375 C -0.5 18.414062 -1.722656 17.773438 -3.109375 17.015625 C -4.492188 16.253906 -5.84375 15.421875 -7.15625 14.515625 C -8.46875 13.617188 -9.539062 12.828125 -10.375 12.140625 L -9.953125 11.203125 C -8.785156 11.546875 -7.578125 11.835938 -6.328125 12.078125 C -5.085938 12.328125 -3.804688 12.453125 -2.484375 12.453125 C 2.492188 12.453125 6.914062 11.015625 10.78125 8.140625 C 14.65625 5.273438 17.53125 1.554688 19.40625 -3.015625 C 18.019531 -6.054688 16.566406 -9.113281 15.046875 -12.1875 C 13.523438 -15.269531 11.863281 -18.609375 10.0625 -22.203125 L 8.40625 -23.65625 C 9.03125 -25.101562 9.703125 -26.445312 10.421875 -27.6875 C 11.148438 -28.9375 11.960938 -30.046875 12.859375 -31.015625 L 14 -31.015625 C 15.25 -29.148438 16.566406 -27.09375 17.953125 -24.84375 C 19.335938 -22.59375 20.820312 -20.019531 22.40625 -17.125 Z M 22.40625 -17.125 "/></g></g></g><g fill="#000000" fill-opacity="1"><g transform="translate(134.372598, 195.316915)"><g><path d="M 22.921875 -7.359375 C 23.546875 -7.359375 23.859375 -7.082031 23.859375 -6.53125 L 23.859375 -0.9375 C 23.859375 -0.3125 23.546875 0 22.921875 0 C 19.265625 0 16.3125 -0.445312 14.0625 -1.34375 C 11.8125 -2.25 10.128906 -3.769531 9.015625 -5.90625 C 7.910156 -8.050781 7.15625 -10.957031 6.75 -14.625 C 6.257812 -19.539062 5.71875 -25.144531 5.125 -31.4375 C 4.539062 -37.726562 3.9375 -45.335938 3.3125 -54.265625 C 4.28125 -55.503906 5.265625 -56.710938 6.265625 -57.890625 C 7.273438 -59.066406 8.332031 -60.070312 9.4375 -60.90625 L 10.578125 -60.90625 L 12.34375 -8.8125 C 13.65625 -8.40625 15.191406 -8.0625 16.953125 -7.78125 C 18.722656 -7.5 20.710938 -7.359375 22.921875 -7.359375 Z M 22.921875 -7.359375 "/></g></g></g><g fill="#000000" fill-opacity="1"><g transform="translate(157.301778, 195.316915)"><g><path d="M 65.875 -7.359375 C 66.5 -7.359375 66.8125 -7.117188 66.8125 -6.640625 L 66.71875 -0.828125 C 66.71875 -0.273438 66.40625 0 65.78125 0 C 63.144531 0 60.894531 -0.691406 59.03125 -2.078125 C 57.164062 -3.460938 55.679688 -5.257812 54.578125 -7.46875 C 54.296875 -6.289062 53.929688 -5.078125 53.484375 -3.828125 C 53.035156 -2.585938 52.640625 -1.898438 52.296875 -1.765625 C 50.835938 -1.210938 49.207031 -0.78125 47.40625 -0.46875 C 45.613281 -0.15625 43.988281 0 42.53125 0 C 38.664062 0 34.273438 -1.242188 29.359375 -3.734375 C 27.148438 -1.316406 23.96875 -0.109375 19.8125 -0.109375 C 18.289062 -0.109375 16.523438 -0.398438 14.515625 -0.984375 C 12.515625 -1.578125 10.648438 -2.425781 8.921875 -3.53125 C 7.742188 -2.21875 6.359375 -1.300781 4.765625 -0.78125 C 3.179688 -0.257812 1.628906 0 0.109375 0 C -0.585938 0 -0.9375 -0.3125 -0.9375 -0.9375 L -0.9375 -6.53125 C -0.9375 -7.082031 -0.585938 -7.359375 0.109375 -7.359375 C 2.109375 -7.359375 4.003906 -7.53125 5.796875 -7.875 C 7.597656 -8.226562 9.160156 -8.75 10.484375 -9.4375 L 13.6875 -23.140625 L 14.9375 -22.828125 L 11.828125 -9.34375 C 12.929688 -8.851562 14.414062 -8.4375 16.28125 -8.09375 C 18.15625 -7.75 19.851562 -7.578125 21.375 -7.578125 C 22.96875 -7.578125 24.578125 -7.710938 26.203125 -7.984375 C 27.828125 -8.265625 29.328125 -8.679688 30.703125 -9.234375 L 34.859375 -26.453125 L 36.109375 -26.140625 L 32.15625 -9.65625 C 34.164062 -8.882812 36.066406 -8.304688 37.859375 -7.921875 C 39.660156 -7.546875 41.566406 -7.359375 43.578125 -7.359375 C 45.097656 -7.359375 46.773438 -7.515625 48.609375 -7.828125 C 50.441406 -8.140625 52.1875 -8.570312 53.84375 -9.125 C 52.945312 -11.550781 52.222656 -14.265625 51.671875 -17.265625 C 51.117188 -20.273438 50.632812 -23.40625 50.21875 -26.65625 C 50.976562 -27.625 51.664062 -28.4375 52.28125 -29.09375 C 52.90625 -29.757812 53.632812 -30.4375 54.46875 -31.125 L 55.609375 -31.125 C 55.742188 -27.59375 56 -24.304688 56.375 -21.265625 C 56.757812 -18.222656 57.300781 -15.628906 58 -13.484375 C 58.550781 -11.691406 59.429688 -10.222656 60.640625 -9.078125 C 61.847656 -7.929688 63.59375 -7.359375 65.875 -7.359375 Z M 65.875 -7.359375 "/></g></g></g><g fill="#000000" fill-opacity="1"><g transform="translate(223.18426, 195.316915)"><g><path d="M 26.25 -31.4375 C 28.25 -31.4375 30.164062 -30.65625 32 -29.09375 C 33.832031 -27.539062 35.351562 -25.207031 36.5625 -22.09375 C 37.78125 -18.988281 38.390625 -15.082031 38.390625 -10.375 C 38.390625 -9.75 38.113281 -8.8125 37.5625 -7.5625 C 37.007812 -6.320312 36.347656 -5.023438 35.578125 -3.671875 C 34.816406 -2.328125 34.09375 -1.1875 33.40625 -0.25 C 32.71875 0.675781 32.195312 1.140625 31.84375 1.140625 C 26.863281 1.140625 22.453125 0.257812 18.609375 -1.5 C 14.773438 -3.269531 11.960938 -5.742188 10.171875 -8.921875 L 9.4375 -7.15625 C 7.226562 -2.382812 4.082031 0 0 0 C -0.625 0 -0.9375 -0.3125 -0.9375 -0.9375 L -0.9375 -6.53125 C -0.9375 -7.082031 -0.625 -7.359375 0 -7.359375 C 3.175781 -7.359375 6.082031 -8.257812 8.71875 -10.0625 L 11.515625 -16.28125 C 14.140625 -22.03125 16.554688 -25.992188 18.765625 -28.171875 C 20.984375 -30.347656 23.476562 -31.4375 26.25 -31.4375 Z M 12.859375 -15.046875 C 15.078125 -11.722656 18.050781 -9.4375 21.78125 -8.1875 C 25.519531 -6.945312 29.84375 -6.289062 34.75 -6.21875 C 33.644531 -12.375 32.191406 -16.90625 30.390625 -19.8125 C 28.597656 -22.71875 26.488281 -24.171875 24.0625 -24.171875 C 22.132812 -24.171875 20.148438 -23.390625 18.109375 -21.828125 C 16.066406 -20.273438 14.316406 -18.015625 12.859375 -15.046875 Z M 12.859375 -15.046875 "/></g></g></g><g fill="#000000" fill-opacity="1"><g transform="translate(128.557657, 261.358605)"><g><path d="M 1.046875 0 L 1.046875 -7.890625 L 2.4375 -7.890625 L 4.828125 -1.375 L 7.234375 -7.890625 L 8.625 -7.890625 L 8.625 0 L 7.578125 0 L 7.578125 -6.390625 L 5.296875 0 L 4.359375 0 L 2.078125 -6.328125 L 2.078125 0 Z M 1.046875 0 "/></g></g></g><g fill="#000000" fill-opacity="1"><g transform="translate(140.981946, 261.358605)"><g><path d="M 0.453125 0 L 3.3125 -7.890625 L 4.453125 -7.890625 L 7.3125 0 L 6.28125 0 L 5.5 -2.15625 L 2.265625 -2.15625 L 1.484375 0 Z M 2.53125 -3.09375 L 5.234375 -3.09375 L 3.890625 -6.890625 Z M 2.53125 -3.09375 "/></g></g></g><g fill="#000000" fill-opacity="1"><g transform="translate(151.491501, 261.358605)"><g><path d="M 3.71875 0.109375 C 3.351562 0.109375 2.992188 0.0625 2.640625 -0.03125 C 2.296875 -0.125 1.976562 -0.257812 1.6875 -0.4375 C 1.40625 -0.625 1.171875 -0.851562 0.984375 -1.125 C 0.796875 -1.40625 0.679688 -1.726562 0.640625 -2.09375 L 1.6875 -2.09375 C 1.757812 -1.800781 1.890625 -1.550781 2.078125 -1.34375 C 2.273438 -1.132812 2.515625 -0.976562 2.796875 -0.875 C 3.078125 -0.78125 3.382812 -0.734375 3.71875 -0.734375 C 4.09375 -0.734375 4.425781 -0.785156 4.71875 -0.890625 C 5.007812 -0.992188 5.238281 -1.140625 5.40625 -1.328125 C 5.570312 -1.523438 5.65625 -1.757812 5.65625 -2.03125 C 5.65625 -2.257812 5.601562 -2.460938 5.5 -2.640625 C 5.394531 -2.816406 5.238281 -2.960938 5.03125 -3.078125 C 4.832031 -3.191406 4.585938 -3.285156 4.296875 -3.359375 L 2.734375 -3.71875 C 2.160156 -3.84375 1.707031 -4.066406 1.375 -4.390625 C 1.039062 -4.722656 0.875 -5.160156 0.875 -5.703125 C 0.875 -6.148438 0.992188 -6.546875 1.234375 -6.890625 C 1.472656 -7.242188 1.800781 -7.515625 2.21875 -7.703125 C 2.644531 -7.898438 3.132812 -8 3.6875 -8 C 4.3125 -8 4.835938 -7.890625 5.265625 -7.671875 C 5.703125 -7.453125 6.03125 -7.164062 6.25 -6.8125 C 6.46875 -6.46875 6.578125 -6.097656 6.578125 -5.703125 L 5.53125 -5.703125 C 5.5 -6.054688 5.394531 -6.335938 5.21875 -6.546875 C 5.039062 -6.765625 4.816406 -6.914062 4.546875 -7 C 4.285156 -7.09375 4 -7.140625 3.6875 -7.140625 C 3.46875 -7.140625 3.25 -7.109375 3.03125 -7.046875 C 2.820312 -6.992188 2.632812 -6.910156 2.46875 -6.796875 C 2.3125 -6.679688 2.179688 -6.539062 2.078125 -6.375 C 1.984375 -6.207031 1.9375 -6.015625 1.9375 -5.796875 C 1.9375 -5.515625 2.03125 -5.28125 2.21875 -5.09375 C 2.414062 -4.914062 2.769531 -4.765625 3.28125 -4.640625 L 4.796875 -4.28125 C 5.179688 -4.195312 5.5 -4.070312 5.75 -3.90625 C 6 -3.75 6.191406 -3.566406 6.328125 -3.359375 C 6.460938 -3.148438 6.554688 -2.929688 6.609375 -2.703125 C 6.660156 -2.472656 6.6875 -2.25 6.6875 -2.03125 C 6.6875 -1.632812 6.566406 -1.273438 6.328125 -0.953125 C 6.097656 -0.628906 5.757812 -0.367188 5.3125 -0.171875 C 4.875 0.015625 4.34375 0.109375 3.71875 0.109375 Z M 3.71875 0.109375 "/></g></g></g><g fill="#000000" fill-opacity="1"><g transform="translate(161.602836, 261.358605)"><g><path d="M 0.453125 0 L 3.3125 -7.890625 L 4.453125 -7.890625 L 7.3125 0 L 6.28125 0 L 5.5 -2.15625 L 2.265625 -2.15625 L 1.484375 0 Z M 2.53125 -3.09375 L 5.234375 -3.09375 L 3.890625 -6.890625 Z M 2.53125 -3.09375 "/></g></g></g><g fill="#000000" fill-opacity="1"><g transform="translate(172.112391, 261.358605)"><g><path d="M 6.6875 0 L 5.625 0 L 4.171875 -3.40625 L 2.046875 -3.40625 L 2.046875 0 L 1.046875 0 L 1.046875 -7.890625 L 4.09375 -7.890625 C 4.664062 -7.890625 5.140625 -7.800781 5.515625 -7.625 C 5.898438 -7.457031 6.1875 -7.210938 6.375 -6.890625 C 6.570312 -6.566406 6.671875 -6.179688 6.671875 -5.734375 C 6.671875 -5.304688 6.59375 -4.953125 6.4375 -4.671875 C 6.289062 -4.390625 6.097656 -4.160156 5.859375 -3.984375 C 5.628906 -3.804688 5.390625 -3.671875 5.140625 -3.578125 Z M 3.78125 -4.234375 C 4.363281 -4.234375 4.816406 -4.351562 5.140625 -4.59375 C 5.472656 -4.84375 5.640625 -5.203125 5.640625 -5.671875 C 5.640625 -6.140625 5.492188 -6.488281 5.203125 -6.71875 C 4.910156 -6.957031 4.515625 -7.078125 4.015625 -7.078125 L 2.046875 -7.078125 L 2.046875 -4.234375 Z M 3.78125 -4.234375 "/></g></g></g><g fill="#000000" fill-opacity="1"><g transform="translate(182.256456, 261.358605)"><g/></g></g><g fill="#000000" fill-opacity="1"><g transform="translate(187.534597, 261.358605)"><g><path d="M 0.453125 0 L 3.3125 -7.890625 L 4.453125 -7.890625 L 7.3125 0 L 6.28125 0 L 5.5 -2.15625 L 2.265625 -2.15625 L 1.484375 0 Z M 2.53125 -3.09375 L 5.234375 -3.09375 L 3.890625 -6.890625 Z M 2.53125 -3.09375 "/></g></g></g><g fill="#000000" fill-opacity="1"><g transform="translate(198.044152, 261.358605)"><g><path d="M 1.046875 -7.890625 L 2.078125 -7.890625 L 2.078125 -0.90625 L 5.8125 -0.90625 L 5.8125 0 L 1.046875 0 Z M 1.046875 -7.890625 "/></g></g></g><g fill="#000000" fill-opacity="1"><g transform="translate(207.108113, 261.358605)"><g><path d="M 0.453125 0 L 3.3125 -7.890625 L 4.453125 -7.890625 L 7.3125 0 L 6.28125 0 L 5.5 -2.15625 L 2.265625 -2.15625 L 1.484375 0 Z M 2.53125 -3.09375 L 5.234375 -3.09375 L 3.890625 -6.890625 Z M 2.53125 -3.09375 "/></g></g></g><g fill="#000000" fill-opacity="1"><g transform="translate(217.617668, 261.358605)"><g><path d="M 0.59375 -3.9375 C 0.59375 -4.800781 0.726562 -5.535156 1 -6.140625 C 1.28125 -6.753906 1.675781 -7.21875 2.1875 -7.53125 C 2.707031 -7.84375 3.316406 -8 4.015625 -8 C 4.710938 -8 5.316406 -7.84375 5.828125 -7.53125 C 6.347656 -7.21875 6.742188 -6.753906 7.015625 -6.140625 C 7.285156 -5.535156 7.421875 -4.800781 7.421875 -3.9375 C 7.421875 -3.113281 7.300781 -2.410156 7.0625 -1.828125 C 6.820312 -1.242188 6.429688 -0.78125 5.890625 -0.4375 C 6.023438 -0.132812 6.222656 0.0859375 6.484375 0.234375 C 6.742188 0.378906 7.035156 0.457031 7.359375 0.46875 L 7.359375 1.328125 C 7.109375 1.328125 6.835938 1.289062 6.546875 1.21875 C 6.253906 1.15625 5.972656 1.03125 5.703125 0.84375 C 5.429688 0.65625 5.179688 0.378906 4.953125 0.015625 C 4.765625 0.046875 4.597656 0.0664062 4.453125 0.078125 C 4.304688 0.0976562 4.160156 0.109375 4.015625 0.109375 C 3.316406 0.109375 2.710938 -0.046875 2.203125 -0.359375 C 1.691406 -0.671875 1.296875 -1.125 1.015625 -1.71875 C 0.734375 -2.320312 0.59375 -3.0625 0.59375 -3.9375 Z M 1.703125 -3.90625 C 1.703125 -2.820312 1.90625 -2.023438 2.3125 -1.515625 C 2.71875 -1.015625 3.285156 -0.765625 4.015625 -0.765625 C 4.742188 -0.765625 5.3125 -1.015625 5.71875 -1.515625 C 6.125 -2.023438 6.328125 -2.828125 6.328125 -3.921875 C 6.328125 -5.003906 6.125 -5.804688 5.71875 -6.328125 C 5.320312 -6.859375 4.753906 -7.125 4.015625 -7.125 C 3.273438 -7.125 2.703125 -6.859375 2.296875 -6.328125 C 1.898438 -5.804688 1.703125 -5 1.703125 -3.90625 Z M 1.703125 -3.90625 "/></g></g></g><g fill="#000000" fill-opacity="1"><g transform="translate(228.536349, 261.358605)"><g><path d="M 0.453125 0 L 3.3125 -7.890625 L 4.453125 -7.890625 L 7.3125 0 L 6.28125 0 L 5.5 -2.15625 L 2.265625 -2.15625 L 1.484375 0 Z M 2.53125 -3.09375 L 5.234375 -3.09375 L 3.890625 -6.890625 Z M 2.53125 -3.09375 "/></g></g></g><g fill="#000000" fill-opacity="1"><g transform="translate(239.045904, 261.358605)"><g><path d="M 6.6875 0 L 5.625 0 L 4.171875 -3.40625 L 2.046875 -3.40625 L 2.046875 0 L 1.046875 0 L 1.046875 -7.890625 L 4.09375 -7.890625 C 4.664062 -7.890625 5.140625 -7.800781 5.515625 -7.625 C 5.898438 -7.457031 6.1875 -7.210938 6.375 -6.890625 C 6.570312 -6.566406 6.671875 -6.179688 6.671875 -5.734375 C 6.671875 -5.304688 6.59375 -4.953125 6.4375 -4.671875 C 6.289062 -4.390625 6.097656 -4.160156 5.859375 -3.984375 C 5.628906 -3.804688 5.390625 -3.671875 5.140625 -3.578125 Z M 3.78125 -4.234375 C 4.363281 -4.234375 4.816406 -4.351562 5.140625 -4.59375 C 5.472656 -4.84375 5.640625 -5.203125 5.640625 -5.671875 C 5.640625 -6.140625 5.492188 -6.488281 5.203125 -6.71875 C 4.910156 -6.957031 4.515625 -7.078125 4.015625 -7.078125 L 2.046875 -7.078125 L 2.046875 -4.234375 Z M 3.78125 -4.234375 "/></g></g></g><path stroke-linecap="butt" transform="matrix(0.75, 0, 0, 0.75, 76.129972, 205.300856)" fill="none" stroke-linejoin="miter" d="M 121.467337 35.078027 L 121.170462 35.416569 L 119.826711 34.890527 C 120.217336 35.885319 120.503795 36.796778 120.691295 37.635319 C 120.889212 38.463444 120.982962 39.098861 120.982962 39.541569 C 120.982962 40.025944 120.941295 40.619695 120.857962 41.32282 C 120.779837 42.025945 120.686087 42.739486 120.576712 43.458236 C 120.467337 44.176986 120.352753 44.807195 120.232961 45.343653 C 120.123586 45.890528 120.040253 46.22907 119.977753 46.364487 C 119.243378 47.864487 118.160045 49.124903 116.732961 50.150945 C 115.311086 51.171779 113.842336 51.828029 112.337128 52.119695 C 112.180878 52.119695 111.852753 51.994695 111.352753 51.755112 C 110.857961 51.520737 110.295461 51.22907 109.654836 50.874904 C 109.014211 50.525945 108.389211 50.13532 107.790252 49.713445 C 107.180877 49.301987 106.680877 48.932195 106.290252 48.614487 L 106.488169 48.182195 C 107.029836 48.343653 107.587127 48.47907 108.165252 48.588445 C 108.743377 48.708237 109.337127 48.765528 109.946502 48.765528 C 112.248586 48.765528 114.295461 48.10407 116.087128 46.775945 C 117.873586 45.44782 119.201711 43.723861 120.071503 41.60407 C 119.430878 40.197819 118.759003 38.786361 118.055878 37.364486 C 117.352753 35.932194 116.58192 34.385319 115.748586 32.723861 L 114.982961 32.057194 C 115.274628 31.385319 115.587128 30.760319 115.920461 30.19261 C 116.259003 29.614485 116.634003 29.09886 117.045461 28.645735 L 117.576711 28.645735 C 118.154836 29.510319 118.764211 30.463444 119.404836 31.505111 C 120.045461 32.541569 120.732962 33.734277 121.467337 35.078027 Z M 133.842337 39.588444 C 134.134004 39.588444 134.274629 39.718653 134.274629 39.979069 L 134.274629 42.567611 C 134.274629 42.85407 134.134004 42.999903 133.842337 42.999903 C 132.149629 42.999903 130.779837 42.79157 129.743379 42.380111 C 128.701712 41.963445 127.92567 41.26032 127.410045 40.270736 C 126.899629 39.275944 126.55067 37.932194 126.352754 36.229069 C 126.134004 33.963444 125.889212 31.369694 125.618379 28.458235 C 125.342337 25.541569 125.061087 22.025943 124.774628 17.900943 C 125.217337 17.322818 125.670462 16.760318 126.134004 16.22386 C 126.602754 15.676985 127.092337 15.213443 127.607962 14.828026 L 128.134004 14.828026 L 128.946504 38.921778 C 129.555879 39.109278 130.264212 39.270736 131.076712 39.400944 C 131.899629 39.525944 132.821504 39.588444 133.842337 39.588444 Z M 140.279838 17.171776 L 142.86838 19.869693 L 140.279838 22.50511 L 137.581921 19.869693 Z M 146.232963 17.171776 L 148.86838 19.869693 L 146.232963 22.50511 L 143.581921 19.869693 Z M 152.420464 39.588444 C 152.581922 39.588444 152.68088 39.635319 152.71213 39.718653 C 152.74338 39.796778 152.759005 39.885319 152.759005 39.979069 L 152.759005 42.567611 C 152.759005 42.85407 152.613172 42.999903 152.326714 42.999903 C 150.467338 42.999903 148.753797 42.864486 147.18088 42.588445 C 145.61838 42.317611 144.18088 41.880111 142.86838 41.275945 C 140.274629 42.426986 137.269421 42.999903 133.847546 42.999903 C 133.555879 42.999903 133.410046 42.85407 133.410046 42.567611 L 133.410046 39.979069 C 133.410046 39.718653 133.555879 39.588444 133.847546 39.588444 C 135.160046 39.588444 136.279838 39.572819 137.206921 39.541569 C 138.139213 39.510319 138.972546 39.447819 139.706921 39.354069 C 138.774629 38.583236 138.019421 37.729069 137.441296 36.791569 C 136.863171 35.843653 136.576713 34.906152 136.576713 33.979069 C 136.576713 32.729069 136.904838 31.489486 137.561088 30.260319 C 138.217338 29.025944 139.066296 28.00511 140.102754 27.19261 C 141.14963 26.369694 142.248588 25.963444 143.394421 25.963444 C 144.514213 25.963444 145.519421 26.34886 146.420463 27.119694 C 147.316297 27.885319 148.035047 28.900944 148.576713 30.166569 C 149.123588 31.426986 149.394422 32.822819 149.394422 34.364486 C 149.394422 35.255111 149.123588 36.119694 148.576713 36.953028 C 148.035047 37.781153 147.347547 38.567611 146.514213 39.307194 C 147.956922 39.494694 149.925672 39.588444 152.420464 39.588444 Z M 137.488171 33.932194 C 138.514213 35.078027 139.503796 36.031153 140.467338 36.791569 C 141.425671 37.541569 142.404838 38.119694 143.394421 38.536361 C 144.831921 37.801986 146.436088 36.791569 148.201713 35.510319 C 146.691297 31.354069 144.884005 29.275944 142.77463 29.275944 C 141.785046 29.275944 140.816296 29.703027 139.868379 30.557194 C 138.925671 31.400944 138.128796 32.525944 137.488171 33.932194 Z M 173.300673 39.588444 C 173.59234 39.588444 173.738173 39.718653 173.738173 39.979069 L 173.738173 42.567611 C 173.738173 42.85407 173.59234 42.999903 173.300673 42.999903 C 171.06109 42.999903 169.12359 42.807195 167.488173 42.426986 C 165.857964 42.04157 164.436089 41.463445 163.222548 40.692611 C 161.910048 41.432195 160.357964 42.005111 158.561089 42.400945 C 156.769422 42.801986 154.691297 42.999903 152.326714 42.999903 C 152.035047 42.999903 151.894422 42.85407 151.894422 42.567611 L 151.894422 39.979069 C 151.894422 39.718653 152.035047 39.588444 152.326714 39.588444 C 154.467339 39.588444 156.201714 39.510319 157.529839 39.354069 C 158.857964 39.192611 160.003797 38.979069 160.962131 38.723861 C 160.071506 37.729069 159.191297 36.557194 158.326714 35.197819 C 157.456922 33.838444 156.738172 32.421777 156.170464 30.953027 C 155.878797 31.078027 155.592339 31.197819 155.300672 31.317611 C 155.014214 31.426986 154.738172 31.557194 154.482964 31.713444 L 154.107964 31.432194 C 154.326714 30.989486 154.566297 30.463444 154.821505 29.854069 C 155.081922 29.244694 155.342339 28.697819 155.607964 28.22386 C 155.878797 27.739485 156.097547 27.463444 156.264214 27.400944 C 157.285047 26.947819 158.420464 26.604069 159.660047 26.369694 C 160.910047 26.13011 162.227756 26.010319 163.613173 26.010319 C 165.524631 26.010319 167.09234 26.374902 168.31109 27.109277 C 169.52984 27.843652 170.139215 28.822819 170.139215 30.041569 C 170.139215 31.578027 169.743381 33.119694 168.956923 34.656152 C 168.175673 36.187403 167.113173 37.578028 165.769423 38.828028 C 166.597548 39.078028 167.618381 39.270736 168.837131 39.400944 C 170.055881 39.525944 171.545465 39.588444 173.300673 39.588444 Z M 163.316298 29.463444 C 161.623589 29.463444 159.863172 29.739485 158.035047 30.28636 C 158.868381 31.911361 159.706922 33.338444 160.550672 34.572819 C 161.404839 35.807194 162.326714 36.890528 163.316298 37.822819 C 165.910048 36.025944 167.816298 33.541569 169.024631 30.380111 C 167.331923 29.770735 165.425673 29.463444 163.316298 29.463444 Z M 182.618382 21.682193 L 182.279841 21.932193 L 181.363174 21.156152 C 181.498591 23.046777 181.607966 24.968652 181.701716 26.921777 C 181.795466 28.874902 181.873591 30.630111 181.936091 32.182194 C 181.998591 33.729069 182.029841 34.854069 182.029841 35.557194 C 182.029841 35.911361 181.894424 36.421778 181.623591 37.093653 C 181.357966 37.765528 181.02984 38.463444 180.649632 39.192611 C 180.264215 39.911361 179.878799 40.54157 179.488174 41.088445 C 179.107965 41.630111 178.821507 41.94782 178.634007 42.04157 C 178.024632 42.328028 177.238174 42.562403 176.27984 42.744695 C 175.316298 42.91657 174.326715 42.999903 173.300673 42.999903 C 173.014215 42.999903 172.868382 42.85407 172.868382 42.567611 L 172.868382 39.979069 C 172.868382 39.718653 173.014215 39.588444 173.300673 39.588444 C 174.451715 39.588444 175.618382 39.489486 176.805882 39.286361 C 177.993382 39.072819 179.02984 38.807194 179.920465 38.489486 C 179.665257 35.067611 179.37359 31.744694 179.055882 28.525944 C 178.743382 25.307194 178.410049 21.781152 178.06109 17.947818 L 177.519424 17.275943 C 178.066299 15.963443 178.759007 14.843651 179.59234 13.916568 L 180.076715 13.916568 C 180.519424 14.937401 180.96734 16.114485 181.410049 17.44261 C 181.863174 18.770735 182.264216 20.182193 182.618382 21.682193 Z M 192.16005 21.682193 L 191.831925 21.932193 L 190.920466 21.156152 C 191.045466 23.015527 191.154841 24.953027 191.248591 26.968652 C 191.347549 28.984277 191.420466 30.833236 191.467341 32.510319 C 191.514216 34.192611 191.540258 35.494694 191.540258 36.426986 C 191.540258 37.541569 191.290258 38.734278 190.790258 39.999903 C 190.295466 41.265528 189.717341 42.442611 189.045466 43.525945 L 188.561091 43.525945 C 188.623591 42.79157 188.670466 42.01032 188.701716 41.182195 C 188.743383 40.348861 188.764216 39.578028 188.764216 38.874903 C 188.764216 37.150944 188.717341 35.150944 188.634008 32.874902 C 188.555883 30.604069 188.425674 28.176985 188.248591 25.59886 C 188.076716 23.020735 187.842341 20.437402 187.555883 17.854068 L 187.076716 17.275943 C 187.623591 15.963443 188.311091 14.843651 189.139216 13.916568 L 189.618383 13.916568 C 190.071508 14.937401 190.514216 16.114485 190.941299 17.44261 C 191.373591 18.770735 191.779841 20.182193 192.16005 21.682193 Z M 192.16005 21.682193 " stroke="#ffffff" stroke-width="9.12" stroke-opacity="1" stroke-miterlimit="4"/><g fill="#000000" fill-opacity="1"><g transform="translate(152.969811, 237.550854)"><g/></g></g><g fill="#000000" fill-opacity="1"><g transform="translate(159.450279, 237.550854)"><g><path d="M 7.78125 -5.9375 L 7.5625 -5.6875 L 6.546875 -6.078125 C 6.835938 -5.335938 7.054688 -4.65625 7.203125 -4.03125 C 7.347656 -3.40625 7.421875 -2.925781 7.421875 -2.59375 C 7.421875 -2.226562 7.390625 -1.78125 7.328125 -1.25 C 7.265625 -0.726562 7.191406 -0.195312 7.109375 0.34375 C 7.023438 0.882812 6.941406 1.359375 6.859375 1.765625 C 6.773438 2.171875 6.707031 2.421875 6.65625 2.515625 C 6.101562 3.648438 5.289062 4.597656 4.21875 5.359375 C 3.15625 6.128906 2.0625 6.625 0.9375 6.84375 C 0.8125 6.84375 0.5625 6.75 0.1875 6.5625 C -0.175781 6.382812 -0.597656 6.164062 -1.078125 5.90625 C -1.554688 5.644531 -2.023438 5.359375 -2.484375 5.046875 C -2.941406 4.734375 -3.3125 4.457031 -3.59375 4.21875 L -3.453125 3.890625 C -3.046875 4.003906 -2.625 4.101562 -2.1875 4.1875 C -1.757812 4.269531 -1.316406 4.3125 -0.859375 4.3125 C 0.867188 4.3125 2.40625 3.8125 3.75 2.8125 C 5.09375 1.820312 6.085938 0.535156 6.734375 -1.046875 C 6.253906 -2.097656 5.75 -3.15625 5.21875 -4.21875 C 4.6875 -5.289062 4.109375 -6.453125 3.484375 -7.703125 L 2.921875 -8.203125 C 3.128906 -8.710938 3.359375 -9.179688 3.609375 -9.609375 C 3.867188 -10.046875 4.15625 -10.429688 4.46875 -10.765625 L 4.859375 -10.765625 C 5.296875 -10.117188 5.753906 -9.40625 6.234375 -8.625 C 6.710938 -7.84375 7.226562 -6.945312 7.78125 -5.9375 Z M 7.78125 -5.9375 "/></g></g></g><g fill="#000000" fill-opacity="1"><g transform="translate(168.5583, 237.550854)"><g><path d="M 7.953125 -2.5625 C 8.171875 -2.5625 8.28125 -2.460938 8.28125 -2.265625 L 8.28125 -0.328125 C 8.28125 -0.109375 8.171875 0 7.953125 0 C 6.679688 0 5.65625 -0.15625 4.875 -0.46875 C 4.09375 -0.78125 3.507812 -1.304688 3.125 -2.046875 C 2.75 -2.796875 2.488281 -3.804688 2.34375 -5.078125 C 2.175781 -6.773438 1.988281 -8.71875 1.78125 -10.90625 C 1.570312 -13.09375 1.363281 -15.734375 1.15625 -18.828125 C 1.488281 -19.253906 1.828125 -19.671875 2.171875 -20.078125 C 2.523438 -20.492188 2.894531 -20.84375 3.28125 -21.125 L 3.671875 -21.125 L 4.28125 -3.0625 C 4.738281 -2.914062 5.269531 -2.796875 5.875 -2.703125 C 6.488281 -2.609375 7.179688 -2.5625 7.953125 -2.5625 Z M 7.953125 -2.5625 "/></g></g></g><g fill="#000000" fill-opacity="1"><g transform="translate(176.514312, 237.550854)"><g><path d="M 4.828125 -19.375 L 6.765625 -17.359375 L 4.828125 -15.375 L 2.8125 -17.359375 Z M 9.28125 -19.375 L 11.265625 -17.359375 L 9.28125 -15.375 L 7.3125 -17.359375 Z M 13.9375 -2.5625 C 14.050781 -2.5625 14.117188 -2.53125 14.140625 -2.46875 C 14.171875 -2.40625 14.1875 -2.335938 14.1875 -2.265625 L 14.1875 -0.328125 C 14.1875 -0.109375 14.078125 0 13.859375 0 C 12.460938 0 11.175781 -0.0976562 10 -0.296875 C 8.832031 -0.503906 7.753906 -0.835938 6.765625 -1.296875 C 4.828125 -0.429688 2.570312 0 0 0 C -0.21875 0 -0.328125 -0.109375 -0.328125 -0.328125 L -0.328125 -2.265625 C -0.328125 -2.460938 -0.21875 -2.5625 0 -2.5625 C 0.976562 -2.5625 1.816406 -2.570312 2.515625 -2.59375 C 3.210938 -2.613281 3.835938 -2.660156 4.390625 -2.734375 C 3.691406 -3.304688 3.125 -3.945312 2.6875 -4.65625 C 2.257812 -5.363281 2.046875 -6.066406 2.046875 -6.765625 C 2.046875 -7.703125 2.289062 -8.628906 2.78125 -9.546875 C 3.28125 -10.472656 3.921875 -11.242188 4.703125 -11.859375 C 5.484375 -12.472656 6.300781 -12.78125 7.15625 -12.78125 C 8 -12.78125 8.753906 -12.488281 9.421875 -11.90625 C 10.097656 -11.332031 10.640625 -10.570312 11.046875 -9.625 C 11.453125 -8.675781 11.65625 -7.628906 11.65625 -6.484375 C 11.65625 -5.804688 11.453125 -5.15625 11.046875 -4.53125 C 10.640625 -3.90625 10.125 -3.316406 9.5 -2.765625 C 10.582031 -2.628906 12.0625 -2.5625 13.9375 -2.5625 Z M 2.734375 -6.796875 C 3.503906 -5.941406 4.25 -5.226562 4.96875 -4.65625 C 5.6875 -4.09375 6.414062 -3.65625 7.15625 -3.34375 C 8.238281 -3.894531 9.441406 -4.648438 10.765625 -5.609375 C 9.640625 -8.734375 8.285156 -10.296875 6.703125 -10.296875 C 5.953125 -10.296875 5.222656 -9.976562 4.515625 -9.34375 C 3.804688 -8.707031 3.210938 -7.859375 2.734375 -6.796875 Z M 2.734375 -6.796875 "/></g></g></g><g fill="#000000" fill-opacity="1"><g transform="translate(190.374342, 237.550854)"><g><path d="M 15.734375 -2.5625 C 15.953125 -2.5625 16.0625 -2.460938 16.0625 -2.265625 L 16.0625 -0.328125 C 16.0625 -0.109375 15.953125 0 15.734375 0 C 14.054688 0 12.601562 -0.140625 11.375 -0.421875 C 10.15625 -0.710938 9.085938 -1.148438 8.171875 -1.734375 C 7.191406 -1.179688 6.023438 -0.753906 4.671875 -0.453125 C 3.328125 -0.148438 1.769531 0 0 0 C -0.21875 0 -0.328125 -0.109375 -0.328125 -0.328125 L -0.328125 -2.265625 C -0.328125 -2.460938 -0.21875 -2.5625 0 -2.5625 C 1.601562 -2.5625 2.90625 -2.617188 3.90625 -2.734375 C 4.90625 -2.859375 5.765625 -3.015625 6.484375 -3.203125 C 5.804688 -3.941406 5.144531 -4.820312 4.5 -5.84375 C 3.851562 -6.863281 3.3125 -7.925781 2.875 -9.03125 C 2.664062 -8.9375 2.453125 -8.847656 2.234375 -8.765625 C 2.015625 -8.679688 1.8125 -8.578125 1.625 -8.453125 L 1.328125 -8.671875 C 1.492188 -9.015625 1.671875 -9.410156 1.859375 -9.859375 C 2.054688 -10.316406 2.253906 -10.722656 2.453125 -11.078125 C 2.660156 -11.441406 2.828125 -11.648438 2.953125 -11.703125 C 3.722656 -12.035156 4.570312 -12.289062 5.5 -12.46875 C 6.4375 -12.65625 7.421875 -12.75 8.453125 -12.75 C 9.898438 -12.75 11.078125 -12.472656 11.984375 -11.921875 C 12.898438 -11.367188 13.359375 -10.632812 13.359375 -9.71875 C 13.359375 -8.5625 13.0625 -7.40625 12.46875 -6.25 C 11.882812 -5.101562 11.085938 -4.0625 10.078125 -3.125 C 10.703125 -2.9375 11.46875 -2.796875 12.375 -2.703125 C 13.289062 -2.609375 14.410156 -2.5625 15.734375 -2.5625 Z M 8.25 -10.15625 C 6.976562 -10.15625 5.65625 -9.953125 4.28125 -9.546875 C 4.90625 -8.316406 5.535156 -7.238281 6.171875 -6.3125 C 6.804688 -5.394531 7.5 -4.585938 8.25 -3.890625 C 10.1875 -5.234375 11.613281 -7.09375 12.53125 -9.46875 C 11.257812 -9.925781 9.832031 -10.15625 8.25 -10.15625 Z M 8.25 -10.15625 "/></g></g></g><g fill="#000000" fill-opacity="1"><g transform="translate(206.106374, 237.550854)"><g><path d="M 6.984375 -15.984375 L 6.734375 -15.796875 L 6.046875 -16.375 C 6.140625 -14.957031 6.222656 -13.515625 6.296875 -12.046875 C 6.367188 -10.585938 6.425781 -9.273438 6.46875 -8.109375 C 6.519531 -6.953125 6.546875 -6.109375 6.546875 -5.578125 C 6.546875 -5.316406 6.441406 -4.929688 6.234375 -4.421875 C 6.035156 -3.921875 5.789062 -3.398438 5.5 -2.859375 C 5.21875 -2.316406 4.929688 -1.84375 4.640625 -1.4375 C 4.359375 -1.03125 4.144531 -0.789062 4 -0.71875 C 3.539062 -0.5 2.953125 -0.320312 2.234375 -0.1875 C 1.515625 -0.0625 0.769531 0 0 0 C -0.21875 0 -0.328125 -0.109375 -0.328125 -0.328125 L -0.328125 -2.265625 C -0.328125 -2.460938 -0.21875 -2.5625 0 -2.5625 C 0.863281 -2.5625 1.738281 -2.640625 2.625 -2.796875 C 3.507812 -2.953125 4.289062 -3.148438 4.96875 -3.390625 C 4.78125 -5.953125 4.5625 -8.4375 4.3125 -10.84375 C 4.070312 -13.257812 3.820312 -15.910156 3.5625 -18.796875 L 3.171875 -19.296875 C 3.578125 -20.273438 4.09375 -21.113281 4.71875 -21.8125 L 5.078125 -21.8125 C 5.410156 -21.039062 5.742188 -20.15625 6.078125 -19.15625 C 6.421875 -18.164062 6.722656 -17.109375 6.984375 -15.984375 Z M 6.984375 -15.984375 "/></g></g></g><g fill="#000000" fill-opacity="1"><g transform="translate(214.854386, 237.550854)"><g><path d="M 5.40625 -15.984375 L 5.140625 -15.796875 L 4.46875 -16.375 C 4.5625 -14.988281 4.644531 -13.535156 4.71875 -12.015625 C 4.789062 -10.503906 4.84375 -9.117188 4.875 -7.859375 C 4.914062 -6.597656 4.9375 -5.625 4.9375 -4.9375 C 4.9375 -4.09375 4.75 -3.195312 4.375 -2.25 C 4 -1.300781 3.5625 -0.421875 3.0625 0.390625 L 2.703125 0.390625 C 2.742188 -0.160156 2.773438 -0.742188 2.796875 -1.359375 C 2.828125 -1.984375 2.84375 -2.5625 2.84375 -3.09375 C 2.84375 -4.394531 2.8125 -5.894531 2.75 -7.59375 C 2.6875 -9.300781 2.585938 -11.117188 2.453125 -13.046875 C 2.328125 -14.984375 2.15625 -16.921875 1.9375 -18.859375 L 1.578125 -19.296875 C 1.992188 -20.273438 2.507812 -21.113281 3.125 -21.8125 L 3.484375 -21.8125 C 3.828125 -21.039062 4.160156 -20.15625 4.484375 -19.15625 C 4.804688 -18.164062 5.113281 -17.109375 5.40625 -15.984375 Z M 5.40625 -15.984375 "/></g></g></g></svg>