<svg xmlns="http://www.w3.org/2000/svg" viewBox="0 0 120 60" fill="none" stroke="currentColor" stroke-width="2" stroke-linecap="round" stroke-linejoin="round">
  <path d="M35.8,29.2c0-4.1,3.4-6.1,3.5-6.1c-1.9-2.8-4.9-3.2-6-3.3c-2.5-0.3-5,1.5-6.3,1.5c-1.3,0-3.3-1.5-5.5-1.4  c-2.8,0-5.3,1.6-6.8,4.1c-2.9,5-0.7,12.4,2.1,16.5c1.4,2,3,4.2,5.1,4.1c2.1-0.1,2.8-1.3,5.3-1.3c2.5,0,3.2,1.3,5.3,1.3  c2.2,0,3.6-2,5-4c1.6-2.3,2.2-4.5,2.3-4.6C39.7,36.1,35.8,34,35.8,29.2z"/>
  <path d="M32.4,17.9c1.1-1.4,1.9-3.3,1.7-5.2c-1.6,0.1-3.6,1.1-4.8,2.4c-1,1.2-1.9,3.1-1.7,5C29.4,20.2,31.2,19.2,32.4,17.9z"/>
  <text x="53" y="35" font-family="Arial, sans-serif" font-size="14" font-weight="bold" fill="currentColor">Pay</text>
</svg> 