<svg xmlns="http://www.w3.org/2000/svg" viewBox="0 0 120 60">
  <rect width="120" height="60" rx="8" fill="#FFFFFF"/>
  <path d="M17,32.1c0-6.9,5.6-12.5,12.5-12.5c6.9,0,12.5,5.6,12.5,12.5c0,6.9-5.6,12.5-12.5,12.5C22.6,44.7,17,39.1,17,32.1z" fill="#671E75"/>
  <path d="M25.5,27.9v2.9h8.3v4.2h-8.3v2.9h8.3c2.3,0,4.2-1.9,4.2-4.2v-1.7c0-2.3-1.9-4.2-4.2-4.2H25.5z" fill="#FFFFFF"/>
  <path d="M50.5,38c2.3,0,4.2-1.9,4.2-4.2v-1.7c0-2.3-1.9-4.2-4.2-4.2h-8.3v12.5h4.2v-5.4h2.1l2.9,5.4h4.6l-3.3-5.4
    c0.8-0.2,1.4-0.8,1.7-1.7h-4.2V38z M46.4,30.8h4.2v2.9h-4.2V30.8z" fill="#671E75"/>
  <path d="M67.2,27.9h-12.5v12.5h4.2v-5h8.3v-7.5z M67.2,30.8v2.1h-8.3v-2.1H67.2z" fill="#671E75"/>
  <path d="M79.7,27.9c-2.3,0-4.2,1.9-4.2,4.2v4.2c0,2.3,1.9,4.2,4.2,4.2h8.3v-2.5h-8.3v-1.7h8.3v-8.3H79.7z M87.9,33.8h-8.3v-1.7
    h8.3V33.8z" fill="#671E75"/>
  <path d="M90.9,27.9v12.5h12.5v-2.5h-8.3v-2.5h8.3v-2.5h-8.3v-2.5h8.3v-2.5H90.9z" fill="#671E75"/>
</svg> 