<svg xmlns="http://www.w3.org/2000/svg" viewBox="0 0 120 60">
  <rect width="120" height="60" rx="8" fill="#FFFFFF"/>
  <path d="M47.8,18.5l-9.9,23.1h-6.6L25.8,23c-0.3-1.2-0.6-1.7-1.5-2.2c-1.5-0.8-4-1.6-6.2-2.1l0.1-0.3h10.8
    c1.4,0,2.6,0.9,2.9,2.5l2.6,14l6.5-16.5H47.8z" fill="#00579F"/>
  <path d="M82.4,34.4c0-6.4-8.9-6.8-8.8-9.7c0-0.9,0.8-1.8,2.7-2c0.9-0.1,3.3-0.2,6.1,0.9l1.1-5.1
    c-1.5-0.5-3.4-1-5.8-1c-6.1,0-10.4,3.2-10.5,7.9c0,3.4,3.1,5.3,5.4,6.5c2.4,1.2,3.2,1.9,3.2,3c0,1.6-1.9,2.3-3.7,2.4
    c-3.1,0-4.9-0.8-6.3-1.5l-1.1,5.3c1.4,0.7,4.1,1.2,6.8,1.2C77.9,42.1,82.4,39,82.4,34.4z" fill="#00579F"/>
  <path d="M92.7,41.6h6.1l-5.3-23.1h-5.6c-1.3,0-2.3,0.7-2.8,1.8l-9.8,21.3h6.9l1.4-3.8h8.4L92.7,41.6z M85.9,32.7
    l3.5-9.5l2,9.5H85.9z" fill="#00579F"/>
  <path d="M70.2,18.5l-5.4,23.1h-6.6l5.4-23.1H70.2z" fill="#00579F"/>
</svg> 