<svg xmlns="http://www.w3.org/2000/svg" xmlns:xlink="http://www.w3.org/1999/xlink" width="500" zoomAndPan="magnify" viewBox="0 0 375 374.999991" height="500" preserveAspectRatio="xMidYMid meet" version="1.0"><defs><g/></defs><g fill="#000000" fill-opacity="1"><g transform="translate(119.448234, 171.086262)"><g><path d="M 20.546875 -14.703125 L 20.046875 -14.109375 L 17.375 -14.609375 C 17.875 -13.554688 18.25 -12.597656 18.5 -11.734375 C 18.75 -10.867188 18.875 -10.210938 18.875 -9.765625 C 18.875 -8.378906 18.773438 -6.78125 18.578125 -4.96875 C 18.390625 -3.15625 18.15625 -1.375 17.875 0.375 C 17.59375 2.125 17.296875 3.613281 16.984375 4.84375 C 16.679688 6.070312 16.445312 6.796875 16.28125 7.015625 C 14.832031 8.742188 13.328125 10.257812 11.765625 11.5625 C 10.210938 12.875 8.097656 14.3125 5.421875 15.875 C 4.984375 15.875 4.148438 15.507812 2.921875 14.78125 C 1.691406 14.0625 0.328125 13.15625 -1.171875 12.0625 C -2.671875 10.976562 -4.070312 9.835938 -5.375 8.640625 C -6.6875 7.441406 -7.679688 6.398438 -8.359375 5.515625 L -7.9375 4.765625 C -5.988281 5.429688 -3.875 5.765625 -1.59375 5.765625 C 1.800781 5.765625 5.015625 4.941406 8.046875 3.296875 C 11.085938 1.648438 13.863281 -0.644531 16.375 -3.59375 C 15.03125 -5.707031 13.578125 -7.878906 12.015625 -10.109375 C 10.460938 -12.335938 8.710938 -14.726562 6.765625 -17.28125 L 5.265625 -18.625 C 6.878906 -21.90625 8.828125 -24.742188 11.109375 -27.140625 L 11.9375 -27.140625 C 13.28125 -25.578125 14.660156 -23.796875 16.078125 -21.796875 C 17.492188 -19.796875 18.984375 -17.429688 20.546875 -14.703125 Z M 20.546875 -14.703125 "/></g></g></g><g fill="#000000" fill-opacity="1"><g transform="translate(141.661329, 171.086262)"><g><path d="M 19.625 -10.1875 C 20.125 -10.1875 20.375 -9.960938 20.375 -9.515625 L 20.375 -0.75 C 20.375 -0.25 20.125 0 19.625 0 C 15.34375 0 12.046875 -1.195312 9.734375 -3.59375 C 7.421875 -5.988281 5.929688 -9.71875 5.265625 -14.78125 C 4.816406 -18.226562 4.285156 -22.375 3.671875 -27.21875 C 3.054688 -32.0625 2.53125 -37.019531 2.09375 -42.09375 C 4.539062 -45.269531 7.265625 -48 10.265625 -50.28125 L 11.109375 -50.28125 L 12.4375 -11.03125 C 14.5 -10.46875 16.894531 -10.1875 19.625 -10.1875 Z M 19.625 -10.1875 "/></g></g></g><g fill="#000000" fill-opacity="1"><g transform="translate(161.28568, 171.086262)"><g><path d="M 53.109375 -10.1875 C 53.617188 -10.1875 53.875 -9.992188 53.875 -9.609375 L 53.875 -0.578125 C 53.875 -0.191406 53.617188 0 53.109375 0 C 50.328125 0 48.070312 -0.847656 46.34375 -2.546875 C 44.625 -4.242188 43.234375 -6.398438 42.171875 -9.015625 C 41.785156 -7.398438 41.328125 -5.785156 40.796875 -4.171875 C 40.265625 -2.554688 39.832031 -1.664062 39.5 -1.5 C 38.71875 -1.050781 37.710938 -0.6875 36.484375 -0.40625 C 35.265625 -0.132812 34.070312 0 32.90625 0 C 29.226562 0 25.523438 -1.140625 21.796875 -3.421875 C 19.628906 -1.253906 16.984375 -0.171875 13.859375 -0.171875 C 12.691406 -0.171875 11.410156 -0.445312 10.015625 -1 C 8.628906 -1.5625 7.296875 -2.3125 6.015625 -3.25 C 5.066406 -2.144531 4.078125 -1.328125 3.046875 -0.796875 C 2.015625 -0.265625 1.023438 0 0.078125 0 C -0.472656 0 -0.75 -0.25 -0.75 -0.75 L -0.75 -9.515625 C -0.75 -9.960938 -0.472656 -10.1875 0.078125 -10.1875 C 3.972656 -10.1875 6.734375 -10.601562 8.359375 -11.4375 L 10.359375 -20.625 L 11.609375 -20.375 L 9.515625 -11.359375 C 10.460938 -11.023438 11.546875 -10.773438 12.765625 -10.609375 C 13.992188 -10.441406 15.222656 -10.359375 16.453125 -10.359375 C 17.617188 -10.359375 18.910156 -10.46875 20.328125 -10.6875 C 21.753906 -10.914062 23.050781 -11.25 24.21875 -11.6875 L 26.890625 -23.140625 L 28.140625 -22.890625 L 25.640625 -11.859375 C 27.085938 -11.304688 28.460938 -10.890625 29.765625 -10.609375 C 31.078125 -10.328125 32.375 -10.1875 33.65625 -10.1875 C 36.601562 -10.1875 39.191406 -10.601562 41.421875 -11.4375 C 40.867188 -13.21875 40.378906 -15.097656 39.953125 -17.078125 C 39.535156 -19.054688 39.191406 -21.242188 38.921875 -23.640625 C 39.804688 -24.691406 40.765625 -25.691406 41.796875 -26.640625 C 42.828125 -27.585938 43.789062 -28.394531 44.6875 -29.0625 L 45.515625 -29.0625 C 45.515625 -26.894531 45.597656 -24.679688 45.765625 -22.421875 C 45.929688 -20.171875 46.265625 -18.125 46.765625 -16.28125 C 47.265625 -14.5 48.015625 -13.035156 49.015625 -11.890625 C 50.023438 -10.753906 51.390625 -10.1875 53.109375 -10.1875 Z M 53.109375 -10.1875 "/></g></g></g><g fill="#000000" fill-opacity="1"><g transform="translate(214.396699, 171.086262)"><g><path d="M 20.46875 -28.3125 C 21.90625 -28.3125 23.363281 -27.710938 24.84375 -26.515625 C 26.320312 -25.316406 27.5625 -23.546875 28.5625 -21.203125 C 29.5625 -18.867188 30.0625 -16.03125 30.0625 -12.6875 C 30.0625 -11.800781 29.695312 -10.601562 28.96875 -9.09375 C 28.25 -7.59375 27.375 -6.0625 26.34375 -4.5 C 25.3125 -2.945312 24.347656 -1.640625 23.453125 -0.578125 C 22.566406 0.472656 21.957031 1 21.625 1 C 18.226562 1 15.222656 0.316406 12.609375 -1.046875 C 9.992188 -2.410156 8.128906 -4.425781 7.015625 -7.09375 L 6.515625 -5.84375 C 4.953125 -1.945312 2.78125 0 0 0 C -0.5 0 -0.75 -0.25 -0.75 -0.75 L -0.75 -9.515625 C -0.75 -9.960938 -0.5 -10.1875 0 -10.1875 C 2.78125 -10.1875 5.257812 -10.910156 7.4375 -12.359375 L 8.359375 -14.609375 C 10.304688 -19.234375 12.171875 -22.671875 13.953125 -24.921875 C 15.734375 -27.179688 17.90625 -28.3125 20.46875 -28.3125 Z M 10.609375 -15.359375 C 11.660156 -13.578125 13.0625 -12.238281 14.8125 -11.34375 C 16.570312 -10.457031 18.425781 -9.875 20.375 -9.59375 C 22.320312 -9.320312 24.078125 -9.160156 25.640625 -9.109375 C 24.640625 -12.054688 23.375 -14.335938 21.84375 -15.953125 C 20.3125 -17.566406 18.679688 -18.375 16.953125 -18.375 C 15.671875 -18.375 14.488281 -18.109375 13.40625 -17.578125 C 12.320312 -17.046875 11.390625 -16.304688 10.609375 -15.359375 Z M 10.609375 -15.359375 "/></g></g></g><path stroke-linecap="butt" transform="matrix(0.0179751, -0.749785, 0.749785, 0.0179751, 147.965721, 114.203181)" fill="none" stroke-linejoin="miter" d="M 0.00161672 0.498935 L 12.17178 0.498922 " stroke="#000000" stroke-width="1" stroke-opacity="1" stroke-miterlimit="4"/><path stroke-linecap="butt" transform="matrix(0.75, 0, 0, 0.75, 148.340796, 208.485015)" fill="none" stroke-linejoin="miter" d="M -0.00126908 0.499147 L 110.378947 0.499147 " stroke="#000000" stroke-width="1" stroke-opacity="1" stroke-miterlimit="4"/><g fill="#000000" fill-opacity="1"><g transform="translate(157.335789, 219.630512)"><g><path d="M 0.5625 0 L 0.5625 -4.3125 L 1.328125 -4.3125 L 2.640625 -0.75 L 3.953125 -4.3125 L 4.71875 -4.3125 L 4.71875 0 L 4.140625 0 L 4.140625 -3.484375 L 2.890625 0 L 2.375 0 L 1.140625 -3.453125 L 1.140625 0 Z M 0.5625 0 "/></g></g></g><g fill="#000000" fill-opacity="1"><g transform="translate(164.131135, 219.630512)"><g><path d="M 0.25 0 L 1.8125 -4.3125 L 2.4375 -4.3125 L 4 0 L 3.421875 0 L 3 -1.1875 L 1.234375 -1.1875 L 0.8125 0 Z M 1.375 -1.6875 L 2.859375 -1.6875 L 2.125 -3.765625 Z M 1.375 -1.6875 "/></g></g></g><g fill="#000000" fill-opacity="1"><g transform="translate(169.879235, 219.630512)"><g><path d="M 2.03125 0.0625 C 1.832031 0.0625 1.632812 0.0351562 1.4375 -0.015625 C 1.25 -0.0664062 1.078125 -0.140625 0.921875 -0.234375 C 0.765625 -0.335938 0.632812 -0.460938 0.53125 -0.609375 C 0.4375 -0.765625 0.375 -0.941406 0.34375 -1.140625 L 0.921875 -1.140625 C 0.960938 -0.984375 1.035156 -0.847656 1.140625 -0.734375 C 1.242188 -0.617188 1.375 -0.535156 1.53125 -0.484375 C 1.6875 -0.429688 1.851562 -0.40625 2.03125 -0.40625 C 2.238281 -0.40625 2.421875 -0.429688 2.578125 -0.484375 C 2.734375 -0.535156 2.859375 -0.613281 2.953125 -0.71875 C 3.046875 -0.832031 3.09375 -0.960938 3.09375 -1.109375 C 3.09375 -1.234375 3.0625 -1.34375 3 -1.4375 C 2.945312 -1.539062 2.863281 -1.625 2.75 -1.6875 C 2.632812 -1.75 2.5 -1.796875 2.34375 -1.828125 L 1.5 -2.03125 C 1.175781 -2.101562 0.925781 -2.226562 0.75 -2.40625 C 0.570312 -2.582031 0.476562 -2.816406 0.46875 -3.109375 C 0.46875 -3.359375 0.535156 -3.578125 0.671875 -3.765625 C 0.804688 -3.953125 0.988281 -4.097656 1.21875 -4.203125 C 1.445312 -4.316406 1.710938 -4.375 2.015625 -4.375 C 2.359375 -4.375 2.644531 -4.3125 2.875 -4.1875 C 3.113281 -4.070312 3.289062 -3.914062 3.40625 -3.71875 C 3.53125 -3.53125 3.59375 -3.332031 3.59375 -3.125 L 3.03125 -3.125 C 3.007812 -3.3125 2.945312 -3.460938 2.84375 -3.578125 C 2.75 -3.691406 2.628906 -3.773438 2.484375 -3.828125 C 2.347656 -3.878906 2.191406 -3.90625 2.015625 -3.90625 C 1.890625 -3.90625 1.769531 -3.890625 1.65625 -3.859375 C 1.539062 -3.828125 1.4375 -3.78125 1.34375 -3.71875 C 1.257812 -3.65625 1.191406 -3.578125 1.140625 -3.484375 C 1.085938 -3.390625 1.0625 -3.285156 1.0625 -3.171875 C 1.0625 -3.015625 1.113281 -2.882812 1.21875 -2.78125 C 1.320312 -2.6875 1.515625 -2.601562 1.796875 -2.53125 L 2.625 -2.34375 C 2.832031 -2.289062 3.003906 -2.21875 3.140625 -2.125 C 3.273438 -2.039062 3.378906 -1.941406 3.453125 -1.828125 C 3.535156 -1.710938 3.585938 -1.59375 3.609375 -1.46875 C 3.640625 -1.351562 3.65625 -1.234375 3.65625 -1.109375 C 3.65625 -0.890625 3.585938 -0.691406 3.453125 -0.515625 C 3.328125 -0.335938 3.144531 -0.195312 2.90625 -0.09375 C 2.664062 0.0078125 2.375 0.0625 2.03125 0.0625 Z M 2.03125 0.0625 "/></g></g></g><g fill="#000000" fill-opacity="1"><g transform="translate(175.409532, 219.630512)"><g><path d="M 0.25 0 L 1.8125 -4.3125 L 2.4375 -4.3125 L 4 0 L 3.421875 0 L 3 -1.1875 L 1.234375 -1.1875 L 0.8125 0 Z M 1.375 -1.6875 L 2.859375 -1.6875 L 2.125 -3.765625 Z M 1.375 -1.6875 "/></g></g></g><g fill="#000000" fill-opacity="1"><g transform="translate(181.157632, 219.630512)"><g><path d="M 3.65625 0 L 3.078125 0 L 2.28125 -1.859375 L 1.125 -1.859375 L 1.125 0 L 0.5625 0 L 0.5625 -4.3125 L 2.234375 -4.3125 C 2.546875 -4.3125 2.804688 -4.265625 3.015625 -4.171875 C 3.222656 -4.078125 3.378906 -3.941406 3.484375 -3.765625 C 3.585938 -3.585938 3.640625 -3.378906 3.640625 -3.140625 C 3.640625 -2.898438 3.597656 -2.703125 3.515625 -2.546875 C 3.429688 -2.390625 3.328125 -2.265625 3.203125 -2.171875 C 3.078125 -2.078125 2.945312 -2.003906 2.8125 -1.953125 Z M 2.0625 -2.3125 C 2.382812 -2.3125 2.632812 -2.378906 2.8125 -2.515625 C 2.988281 -2.648438 3.078125 -2.847656 3.078125 -3.109375 C 3.078125 -3.359375 3 -3.546875 2.84375 -3.671875 C 2.6875 -3.796875 2.46875 -3.859375 2.1875 -3.859375 L 1.125 -3.859375 L 1.125 -2.3125 Z M 2.0625 -2.3125 "/></g></g></g><g fill="#000000" fill-opacity="1"><g transform="translate(186.705831, 219.630512)"><g/></g></g><g fill="#000000" fill-opacity="1"><g transform="translate(189.592659, 219.630512)"><g><path d="M 0.25 0 L 1.8125 -4.3125 L 2.4375 -4.3125 L 4 0 L 3.421875 0 L 3 -1.1875 L 1.234375 -1.1875 L 0.8125 0 Z M 1.375 -1.6875 L 2.859375 -1.6875 L 2.125 -3.765625 Z M 1.375 -1.6875 "/></g></g></g><g fill="#000000" fill-opacity="1"><g transform="translate(195.34076, 219.630512)"><g><path d="M 0.578125 -4.3125 L 1.140625 -4.3125 L 1.140625 -0.5 L 3.171875 -0.5 L 3.171875 0 L 0.5625 0 Z M 0.578125 -4.3125 "/></g></g></g><g fill="#000000" fill-opacity="1"><g transform="translate(200.298206, 219.630512)"><g><path d="M 0.25 0 L 1.8125 -4.3125 L 2.4375 -4.3125 L 4 0 L 3.421875 0 L 3 -1.1875 L 1.234375 -1.1875 L 0.8125 0 Z M 1.375 -1.6875 L 2.859375 -1.6875 L 2.125 -3.765625 Z M 1.375 -1.6875 "/></g></g></g><g fill="#000000" fill-opacity="1"><g transform="translate(206.046306, 219.630512)"><g><path d="M 0.328125 -2.15625 C 0.328125 -2.625 0.398438 -3.023438 0.546875 -3.359375 C 0.703125 -3.691406 0.921875 -3.941406 1.203125 -4.109375 C 1.484375 -4.285156 1.8125 -4.375 2.1875 -4.375 C 2.570312 -4.375 2.90625 -4.285156 3.1875 -4.109375 C 3.46875 -3.941406 3.679688 -3.691406 3.828125 -3.359375 C 3.984375 -3.023438 4.0625 -2.625 4.0625 -2.15625 C 4.0625 -1.707031 3.992188 -1.320312 3.859375 -1 C 3.722656 -0.675781 3.507812 -0.421875 3.21875 -0.234375 C 3.289062 -0.0664062 3.398438 0.0507812 3.546875 0.125 C 3.691406 0.207031 3.851562 0.25 4.03125 0.25 L 4.03125 0.71875 C 3.882812 0.71875 3.734375 0.703125 3.578125 0.671875 C 3.421875 0.640625 3.265625 0.570312 3.109375 0.46875 C 2.960938 0.363281 2.828125 0.207031 2.703125 0 C 2.597656 0.0195312 2.503906 0.0351562 2.421875 0.046875 C 2.347656 0.0546875 2.269531 0.0625 2.1875 0.0625 C 1.8125 0.0625 1.484375 -0.0195312 1.203125 -0.1875 C 0.921875 -0.363281 0.703125 -0.613281 0.546875 -0.9375 C 0.398438 -1.269531 0.328125 -1.675781 0.328125 -2.15625 Z M 0.9375 -2.140625 C 0.9375 -1.546875 1.046875 -1.109375 1.265625 -0.828125 C 1.484375 -0.554688 1.789062 -0.421875 2.1875 -0.421875 C 2.59375 -0.421875 2.90625 -0.554688 3.125 -0.828125 C 3.34375 -1.109375 3.453125 -1.546875 3.453125 -2.140625 C 3.453125 -2.734375 3.34375 -3.171875 3.125 -3.453125 C 2.90625 -3.742188 2.59375 -3.890625 2.1875 -3.890625 C 1.789062 -3.890625 1.484375 -3.742188 1.265625 -3.453125 C 1.046875 -3.171875 0.9375 -2.734375 0.9375 -2.140625 Z M 0.9375 -2.140625 "/></g></g></g><g fill="#000000" fill-opacity="1"><g transform="translate(212.018174, 219.630512)"><g><path d="M 0.25 0 L 1.8125 -4.3125 L 2.4375 -4.3125 L 4 0 L 3.421875 0 L 3 -1.1875 L 1.234375 -1.1875 L 0.8125 0 Z M 1.375 -1.6875 L 2.859375 -1.6875 L 2.125 -3.765625 Z M 1.375 -1.6875 "/></g></g></g><g fill="#000000" fill-opacity="1"><g transform="translate(217.766274, 219.630512)"><g><path d="M 3.65625 0 L 3.078125 0 L 2.28125 -1.859375 L 1.125 -1.859375 L 1.125 0 L 0.5625 0 L 0.5625 -4.3125 L 2.234375 -4.3125 C 2.546875 -4.3125 2.804688 -4.265625 3.015625 -4.171875 C 3.222656 -4.078125 3.378906 -3.941406 3.484375 -3.765625 C 3.585938 -3.585938 3.640625 -3.378906 3.640625 -3.140625 C 3.640625 -2.898438 3.597656 -2.703125 3.515625 -2.546875 C 3.429688 -2.390625 3.328125 -2.265625 3.203125 -2.171875 C 3.078125 -2.078125 2.945312 -2.003906 2.8125 -1.953125 Z M 2.0625 -2.3125 C 2.382812 -2.3125 2.632812 -2.378906 2.8125 -2.515625 C 2.988281 -2.648438 3.078125 -2.847656 3.078125 -3.109375 C 3.078125 -3.359375 3 -3.546875 2.84375 -3.671875 C 2.6875 -3.796875 2.46875 -3.859375 2.1875 -3.859375 L 1.125 -3.859375 L 1.125 -2.3125 Z M 2.0625 -2.3125 "/></g></g></g><g fill="#000000" fill-opacity="1"><g transform="translate(166.490941, 194.80513)"><g/></g></g><g fill="#000000" fill-opacity="1"><g transform="translate(169.986829, 194.80513)"><g><path d="M 5.375 -3.84375 L 5.234375 -3.6875 L 4.546875 -3.8125 C 4.671875 -3.539062 4.765625 -3.289062 4.828125 -3.0625 C 4.898438 -2.84375 4.9375 -2.671875 4.9375 -2.546875 C 4.9375 -2.191406 4.910156 -1.773438 4.859375 -1.296875 C 4.804688 -0.828125 4.742188 -0.363281 4.671875 0.09375 C 4.597656 0.550781 4.519531 0.941406 4.4375 1.265625 C 4.363281 1.585938 4.300781 1.773438 4.25 1.828125 C 3.875 2.285156 3.484375 2.679688 3.078125 3.015625 C 2.671875 3.359375 2.117188 3.734375 1.421875 4.140625 C 1.304688 4.140625 1.085938 4.046875 0.765625 3.859375 C 0.441406 3.671875 0.0859375 3.4375 -0.296875 3.15625 C -0.691406 2.875 -1.0625 2.578125 -1.40625 2.265625 C -1.75 1.953125 -2.007812 1.675781 -2.1875 1.4375 L -2.078125 1.25 C -1.566406 1.414062 -1.015625 1.5 -0.421875 1.5 C 0.472656 1.5 1.316406 1.285156 2.109375 0.859375 C 2.898438 0.429688 3.625 -0.164062 4.28125 -0.9375 C 3.925781 -1.488281 3.546875 -2.054688 3.140625 -2.640625 C 2.734375 -3.222656 2.273438 -3.847656 1.765625 -4.515625 L 1.375 -4.875 C 1.800781 -5.726562 2.3125 -6.46875 2.90625 -7.09375 L 3.125 -7.09375 C 3.46875 -6.6875 3.828125 -6.21875 4.203125 -5.6875 C 4.578125 -5.164062 4.96875 -4.550781 5.375 -3.84375 Z M 5.375 -3.84375 "/></g></g></g><g fill="#000000" fill-opacity="1"><g transform="translate(175.793083, 194.80513)"><g><path d="M 5.125 -2.65625 C 5.257812 -2.65625 5.328125 -2.597656 5.328125 -2.484375 L 5.328125 -0.203125 C 5.328125 -0.0664062 5.257812 0 5.125 0 C 4.007812 0 3.148438 -0.3125 2.546875 -0.9375 C 1.941406 -1.5625 1.550781 -2.535156 1.375 -3.859375 C 1.257812 -4.765625 1.117188 -5.847656 0.953125 -7.109375 C 0.796875 -8.378906 0.660156 -9.675781 0.546875 -11 C 1.179688 -11.832031 1.894531 -12.546875 2.6875 -13.140625 L 2.90625 -13.140625 L 3.25 -2.875 C 3.789062 -2.726562 4.414062 -2.65625 5.125 -2.65625 Z M 5.125 -2.65625 "/></g></g></g><g fill="#000000" fill-opacity="1"><g transform="translate(180.922673, 194.80513)"><g><path d="M 5.515625 -9.6875 L 4 -11.21875 L 2.46875 -9.6875 L 0.78125 -11.375 L 2.46875 -13.078125 L 4 -11.53125 L 5.515625 -13.078125 L 7.1875 -11.375 Z M 7.84375 -2.65625 C 7.96875 -2.65625 8.03125 -2.597656 8.03125 -2.484375 L 8.03125 -0.203125 C 8.03125 -0.0664062 7.96875 0 7.84375 0 C 6.289062 0 4.890625 -0.289062 3.640625 -0.875 C 2.554688 -0.289062 1.34375 0 0 0 C -0.132812 0 -0.203125 -0.0664062 -0.203125 -0.203125 L -0.203125 -2.484375 C -0.203125 -2.597656 -0.132812 -2.65625 0 -2.65625 L 1.53125 -2.65625 C 1.207031 -3.226562 1.046875 -3.84375 1.046875 -4.5 C 1.046875 -4.914062 1.125 -5.351562 1.28125 -5.8125 C 1.445312 -6.269531 1.664062 -6.691406 1.9375 -7.078125 C 2.21875 -7.460938 2.53125 -7.773438 2.875 -8.015625 C 3.226562 -8.253906 3.59375 -8.375 3.96875 -8.375 C 4.550781 -8.375 5.046875 -8.195312 5.453125 -7.84375 C 5.859375 -7.5 6.171875 -7.046875 6.390625 -6.484375 C 6.609375 -5.929688 6.71875 -5.320312 6.71875 -4.65625 C 6.71875 -4.289062 6.660156 -3.941406 6.546875 -3.609375 C 6.441406 -3.285156 6.289062 -2.976562 6.09375 -2.6875 C 6.3125 -2.664062 6.566406 -2.65625 6.859375 -2.65625 C 7.148438 -2.65625 7.476562 -2.65625 7.84375 -2.65625 Z M 3.53125 -5.9375 C 2.90625 -5.9375 2.257812 -5.492188 1.59375 -4.609375 C 1.988281 -4.203125 2.378906 -3.859375 2.765625 -3.578125 C 3.148438 -3.304688 3.582031 -3.085938 4.0625 -2.921875 C 4.351562 -3.035156 4.644531 -3.171875 4.9375 -3.328125 C 5.226562 -3.484375 5.503906 -3.632812 5.765625 -3.78125 C 5.441406 -4.457031 5.085938 -4.984375 4.703125 -5.359375 C 4.316406 -5.742188 3.925781 -5.9375 3.53125 -5.9375 Z M 3.53125 -5.9375 "/></g></g></g><g fill="#000000" fill-opacity="1"><g transform="translate(188.758938, 194.80513)"><g><path d="M 9.515625 -2.65625 C 9.648438 -2.65625 9.71875 -2.597656 9.71875 -2.484375 L 9.71875 -0.203125 C 9.71875 -0.0664062 9.648438 0 9.515625 0 C 7.753906 0 6.289062 -0.378906 5.125 -1.140625 C 4.519531 -0.773438 3.769531 -0.492188 2.875 -0.296875 C 1.976562 -0.0976562 1.019531 0 0 0 C -0.132812 0 -0.203125 -0.0664062 -0.203125 -0.203125 L -0.203125 -2.484375 C -0.203125 -2.597656 -0.132812 -2.65625 0 -2.65625 C 0.6875 -2.65625 1.304688 -2.660156 1.859375 -2.671875 C 2.421875 -2.691406 2.929688 -2.71875 3.390625 -2.75 C 3.109375 -3.125 2.84375 -3.515625 2.59375 -3.921875 C 2.34375 -4.335938 2.125 -4.738281 1.9375 -5.125 C 1.789062 -5.070312 1.644531 -5.019531 1.5 -4.96875 C 1.351562 -4.914062 1.21875 -4.851562 1.09375 -4.78125 L 0.921875 -4.890625 C 0.972656 -5.085938 1.050781 -5.34375 1.15625 -5.65625 C 1.257812 -5.976562 1.375 -6.296875 1.5 -6.609375 C 1.625 -6.929688 1.742188 -7.203125 1.859375 -7.421875 C 1.972656 -7.648438 2.070312 -7.789062 2.15625 -7.84375 C 2.539062 -8.007812 2.992188 -8.144531 3.515625 -8.25 C 4.035156 -8.351562 4.609375 -8.40625 5.234375 -8.40625 C 6.140625 -8.40625 6.867188 -8.164062 7.421875 -7.6875 C 7.972656 -7.21875 8.25 -6.601562 8.25 -5.84375 C 8.25 -5.34375 8.128906 -4.816406 7.890625 -4.265625 C 7.660156 -3.722656 7.351562 -3.210938 6.96875 -2.734375 C 7.601562 -2.679688 8.453125 -2.65625 9.515625 -2.65625 Z M 5.109375 -5.703125 C 4.828125 -5.703125 4.523438 -5.679688 4.203125 -5.640625 C 3.890625 -5.609375 3.570312 -5.554688 3.25 -5.484375 C 3.894531 -4.398438 4.519531 -3.617188 5.125 -3.140625 C 5.988281 -3.691406 6.734375 -4.445312 7.359375 -5.40625 C 7.066406 -5.5 6.71875 -5.570312 6.3125 -5.625 C 5.90625 -5.675781 5.503906 -5.703125 5.109375 -5.703125 Z M 5.109375 -5.703125 "/></g></g></g><g fill="#000000" fill-opacity="1"><g transform="translate(198.275958, 194.80513)"><g><path d="M 4.671875 -9.125 L 4.515625 -9 L 3.96875 -9.296875 C 4.0625 -8.148438 4.132812 -7.15625 4.1875 -6.3125 C 4.25 -5.46875 4.28125 -4.882812 4.28125 -4.5625 C 4.28125 -4.382812 4.207031 -4.128906 4.0625 -3.796875 C 3.914062 -3.472656 3.726562 -3.117188 3.5 -2.734375 C 3.28125 -2.347656 3.046875 -1.972656 2.796875 -1.609375 C 2.554688 -1.242188 2.335938 -0.9375 2.140625 -0.6875 C 1.953125 -0.445312 1.820312 -0.3125 1.75 -0.28125 C 1.53125 -0.195312 1.257812 -0.128906 0.9375 -0.078125 C 0.613281 -0.0234375 0.300781 0 0 0 C -0.132812 0 -0.203125 -0.0664062 -0.203125 -0.203125 L -0.203125 -2.484375 C -0.203125 -2.597656 -0.132812 -2.65625 0 -2.65625 C 0.488281 -2.65625 0.976562 -2.6875 1.46875 -2.75 C 1.96875 -2.8125 2.398438 -2.890625 2.765625 -2.984375 C 2.597656 -4.335938 2.414062 -5.6875 2.21875 -7.03125 C 2.03125 -8.382812 1.835938 -9.679688 1.640625 -10.921875 L 1.3125 -11.3125 C 1.726562 -12.175781 2.238281 -12.914062 2.84375 -13.53125 L 3.0625 -13.53125 C 3.582031 -12.457031 4.117188 -10.988281 4.671875 -9.125 Z M 4.671875 -9.125 "/></g></g></g><g fill="#000000" fill-opacity="1"><g transform="translate(203.711139, 194.80513)"><g><path d="M 4.015625 -9.125 L 3.859375 -9 L 3.34375 -9.296875 C 3.445312 -8.148438 3.523438 -7.082031 3.578125 -6.09375 C 3.640625 -5.113281 3.671875 -4.328125 3.671875 -3.734375 C 3.671875 -3.109375 3.472656 -2.429688 3.078125 -1.703125 C 2.679688 -0.972656 2.191406 -0.316406 1.609375 0.265625 L 1.390625 0.265625 C 1.421875 -0.160156 1.445312 -0.570312 1.46875 -0.96875 C 1.488281 -1.375 1.5 -1.789062 1.5 -2.21875 C 1.5 -3.675781 1.457031 -5.09375 1.375 -6.46875 C 1.289062 -7.84375 1.144531 -9.347656 0.9375 -10.984375 L 0.65625 -11.3125 C 1.070312 -12.175781 1.582031 -12.914062 2.1875 -13.53125 L 2.40625 -13.53125 C 2.925781 -12.457031 3.460938 -10.988281 4.015625 -9.125 Z M 4.015625 -9.125 "/></g></g></g><path stroke-linecap="butt" transform="matrix(-0.749988, -0.00428526, 0.00428526, -0.749988, 231.118554, 105.697179)" fill="none" stroke-linejoin="miter" d="M -0.00051506 0.502499 L 110.376291 0.502051 " stroke="#000000" stroke-width="1" stroke-opacity="1" stroke-miterlimit="4"/><path stroke-linecap="butt" transform="matrix(0.0108714, -0.749921, 0.749921, 0.0108714, 230.747171, 137.70506)" fill="none" stroke-linejoin="miter" d="M -0.000609394 0.498625 L 43.509166 0.498151 " stroke="#000000" stroke-width="1" stroke-opacity="1" stroke-miterlimit="4"/><path stroke-linecap="butt" transform="matrix(0, -0.75, 0.75, 0, 230.746132, 208.855827)" fill="none" stroke-linejoin="miter" d="M 0.00047778 0.499949 L 41.901522 0.499949 " stroke="#000000" stroke-width="1" stroke-opacity="1" stroke-miterlimit="4"/><path stroke-linecap="butt" transform="matrix(0.0141687, -0.749866, 0.749866, 0.0141687, 147.589771, 208.851797)" fill="none" stroke-linejoin="miter" d="M -0.000653908 0.500199 L 41.907869 0.500146 " stroke="#000000" stroke-width="1" stroke-opacity="1" stroke-miterlimit="4"/></svg>